<svg width="98" height="142" viewBox="0 0 98 142" fill="none" xmlns="http://www.w3.org/2000/svg">
<path fill-rule="evenodd" clip-rule="evenodd" d="M10.0001 0H88C93.5229 0 98.0001 4.47717 98.0001 9.99993V132C98.0001 137.523 93.5229 142 88 142H10.0001C4.47723 142 0 137.523 0 132V9.99993C0 4.47717 4.47723 0 10.0001 0Z" fill="white"/>
<g opacity="0.2">
<rect x="13.5" y="21.5" width="71" height="48" rx="4.5" fill="white" stroke="#059599"/>
<rect x="40.5" y="10.5" width="18" height="2" rx="1" fill="white" stroke="#059599"/>
</g>
<path d="M36.8405 88.608C37.3365 88.76 37.7165 89.016 37.9805 89.376C38.2445 89.728 38.3765 90.164 38.3765 90.684C38.3765 91.148 38.2525 91.556 38.0045 91.908C37.7645 92.252 37.4165 92.52 36.9605 92.712C36.5125 92.904 35.9845 93 35.3765 93H32.1845C31.8565 93 31.6045 92.912 31.4285 92.736C31.2525 92.56 31.1645 92.308 31.1645 91.98V85.56C31.1645 85.232 31.2525 84.98 31.4285 84.804C31.6045 84.628 31.8565 84.54 32.1845 84.54H35.2565C36.1445 84.54 36.8485 84.74 37.3685 85.14C37.8965 85.532 38.1605 86.064 38.1605 86.736C38.1605 87.168 38.0445 87.552 37.8125 87.888C37.5805 88.216 37.2565 88.456 36.8405 88.608ZM33.3125 87.864H34.8845C35.3005 87.864 35.6045 87.8 35.7965 87.672C35.9885 87.544 36.0845 87.34 36.0845 87.06C36.0845 86.764 35.9885 86.548 35.7965 86.412C35.6045 86.276 35.3005 86.208 34.8845 86.208H33.3125V87.864ZM35.1005 91.332C35.5405 91.332 35.8525 91.264 36.0365 91.128C36.2285 90.984 36.3245 90.752 36.3245 90.432C36.3245 90.112 36.2285 89.884 36.0365 89.748C35.8525 89.604 35.5405 89.532 35.1005 89.532H33.3125V91.332H35.1005ZM47.6317 91.644C47.7037 91.796 47.7397 91.944 47.7397 92.088C47.7397 92.352 47.6317 92.576 47.4157 92.76C47.2077 92.944 46.9677 93.036 46.6957 93.036C46.5117 93.036 46.3437 92.988 46.1917 92.892C46.0397 92.796 45.9197 92.652 45.8317 92.46L45.2917 91.248H41.4037L40.8517 92.46C40.7637 92.652 40.6397 92.796 40.4797 92.892C40.3277 92.988 40.1597 93.036 39.9757 93.036C39.7037 93.036 39.4557 92.944 39.2317 92.76C39.0157 92.576 38.9077 92.352 38.9077 92.088C38.9077 91.944 38.9437 91.796 39.0157 91.644L42.1837 85.14C42.2877 84.924 42.4397 84.76 42.6397 84.648C42.8477 84.528 43.0757 84.468 43.3237 84.468C43.5637 84.468 43.7877 84.528 43.9957 84.648C44.2037 84.76 44.3597 84.924 44.4637 85.14L47.6317 91.644ZM44.5477 89.592L43.3477 86.916L42.1477 89.592H44.5477ZM51.7117 93.108C51.0717 93.108 50.4757 93.04 49.9237 92.904C49.3797 92.76 48.9317 92.564 48.5797 92.316C48.4437 92.212 48.3437 92.104 48.2797 91.992C48.2237 91.88 48.1957 91.736 48.1957 91.56C48.1957 91.32 48.2677 91.112 48.4117 90.936C48.5557 90.76 48.7237 90.672 48.9157 90.672C49.0197 90.672 49.1197 90.688 49.2157 90.72C49.3117 90.752 49.4317 90.812 49.5757 90.9C49.9037 91.084 50.2277 91.216 50.5477 91.296C50.8757 91.376 51.2437 91.416 51.6517 91.416C52.1237 91.416 52.4797 91.348 52.7197 91.212C52.9677 91.068 53.0917 90.86 53.0917 90.588C53.0917 90.404 52.9757 90.248 52.7437 90.12C52.5197 89.984 52.0877 89.852 51.4477 89.724C50.6557 89.556 50.0357 89.356 49.5877 89.124C49.1397 88.892 48.8237 88.62 48.6397 88.308C48.4637 87.988 48.3757 87.604 48.3757 87.156C48.3757 86.644 48.5277 86.18 48.8317 85.764C49.1357 85.348 49.5517 85.024 50.0797 84.792C50.6157 84.552 51.2157 84.432 51.8797 84.432C52.4637 84.432 52.9837 84.496 53.4397 84.624C53.8957 84.752 54.3117 84.952 54.6877 85.224C54.8317 85.328 54.9317 85.44 54.9877 85.56C55.0517 85.672 55.0837 85.812 55.0837 85.98C55.0837 86.22 55.0117 86.428 54.8677 86.604C54.7317 86.78 54.5677 86.868 54.3757 86.868C54.2717 86.868 54.1757 86.856 54.0877 86.832C53.9997 86.8 53.8757 86.736 53.7157 86.64C53.6757 86.616 53.5597 86.556 53.3677 86.46C53.1837 86.356 52.9637 86.276 52.7077 86.22C52.4597 86.156 52.1877 86.124 51.8917 86.124C51.4837 86.124 51.1557 86.204 50.9077 86.364C50.6597 86.516 50.5357 86.72 50.5357 86.976C50.5357 87.128 50.5797 87.252 50.6677 87.348C50.7557 87.444 50.9197 87.54 51.1597 87.636C51.3997 87.724 51.7557 87.816 52.2277 87.912C52.9957 88.08 53.5997 88.284 54.0397 88.524C54.4797 88.756 54.7917 89.028 54.9757 89.34C55.1597 89.652 55.2517 90.02 55.2517 90.444C55.2517 90.972 55.1037 91.44 54.8077 91.848C54.5117 92.248 54.0957 92.56 53.5597 92.784C53.0317 93 52.4157 93.108 51.7117 93.108ZM57.5924 93.072C57.2564 93.072 56.9884 92.976 56.7884 92.784C56.5964 92.584 56.5004 92.316 56.5004 91.98V85.56C56.5004 85.232 56.5964 84.972 56.7884 84.78C56.9884 84.58 57.2564 84.48 57.5924 84.48C57.9364 84.48 58.2084 84.58 58.4084 84.78C58.6084 84.972 58.7084 85.232 58.7084 85.56V91.98C58.7084 92.316 58.6084 92.584 58.4084 92.784C58.2084 92.976 57.9364 93.072 57.5924 93.072ZM64.2467 93.108C63.3987 93.108 62.6547 92.932 62.0147 92.58C61.3827 92.228 60.8907 91.724 60.5387 91.068C60.1947 90.412 60.0227 89.644 60.0227 88.764C60.0227 87.892 60.1947 87.128 60.5387 86.472C60.8907 85.816 61.3827 85.312 62.0147 84.96C62.6547 84.608 63.3987 84.432 64.2467 84.432C65.2627 84.432 66.1547 84.7 66.9227 85.236C67.0587 85.332 67.1547 85.436 67.2107 85.548C67.2747 85.66 67.3067 85.804 67.3067 85.98C67.3067 86.228 67.2347 86.44 67.0907 86.616C66.9547 86.784 66.7867 86.868 66.5867 86.868C66.4667 86.868 66.3587 86.852 66.2627 86.82C66.1667 86.78 66.0547 86.72 65.9267 86.64C65.6467 86.472 65.3827 86.352 65.1347 86.28C64.8867 86.208 64.6307 86.172 64.3667 86.172C63.6547 86.172 63.1227 86.388 62.7707 86.82C62.4267 87.244 62.2547 87.892 62.2547 88.764C62.2547 89.644 62.4267 90.3 62.7707 90.732C63.1227 91.156 63.6547 91.368 64.3667 91.368C64.6067 91.368 64.8387 91.332 65.0627 91.26C65.2867 91.18 65.5747 91.06 65.9267 90.9C66.0947 90.812 66.2187 90.752 66.2987 90.72C66.3787 90.688 66.4747 90.672 66.5867 90.672C66.7867 90.672 66.9547 90.76 67.0907 90.936C67.2347 91.104 67.3067 91.312 67.3067 91.56C67.3067 91.728 67.2747 91.872 67.2107 91.992C67.1547 92.104 67.0587 92.208 66.9227 92.304C66.1547 92.84 65.2627 93.108 64.2467 93.108ZM29.2448 107.072C28.9088 107.072 28.6408 106.976 28.4408 106.784C28.2488 106.584 28.1528 106.316 28.1528 105.98V99.56C28.1528 99.232 28.2408 98.98 28.4168 98.804C28.5928 98.628 28.8448 98.54 29.1728 98.54H32.2448C33.1808 98.54 33.9088 98.78 34.4288 99.26C34.9488 99.732 35.2088 100.392 35.2088 101.24C35.2088 102.08 34.9448 102.74 34.4168 103.22C33.8968 103.7 33.1728 103.94 32.2448 103.94H30.3608V105.98C30.3608 106.316 30.2608 106.584 30.0608 106.784C29.8608 106.976 29.5888 107.072 29.2448 107.072ZM31.9448 102.284C32.3528 102.284 32.6528 102.2 32.8448 102.032C33.0448 101.864 33.1448 101.604 33.1448 101.252C33.1448 100.556 32.7448 100.208 31.9448 100.208H30.3608V102.284H31.9448ZM42.9699 98.48C43.2979 98.48 43.5579 98.58 43.7499 98.78C43.9499 98.972 44.0499 99.232 44.0499 99.56V105.98C44.0499 106.308 43.9499 106.572 43.7499 106.772C43.5579 106.972 43.2979 107.072 42.9699 107.072C42.6419 107.072 42.3779 106.976 42.1779 106.784C41.9859 106.584 41.8899 106.316 41.8899 105.98V103.58H38.4339V105.98C38.4339 106.308 38.3339 106.572 38.1339 106.772C37.9419 106.972 37.6819 107.072 37.3539 107.072C37.0259 107.072 36.7619 106.976 36.5619 106.784C36.3699 106.584 36.2739 106.316 36.2739 105.98V99.56C36.2739 99.232 36.3699 98.972 36.5619 98.78C36.7619 98.58 37.0259 98.48 37.3539 98.48C37.6819 98.48 37.9419 98.58 38.1339 98.78C38.3339 98.972 38.4339 99.232 38.4339 99.56V101.828H41.8899V99.56C41.8899 99.232 41.9859 98.972 42.1779 98.78C42.3779 98.58 42.6419 98.48 42.9699 98.48ZM49.6103 107.108C48.7463 107.108 47.9943 106.932 47.3543 106.58C46.7223 106.22 46.2343 105.716 45.8903 105.068C45.5463 104.412 45.3743 103.644 45.3743 102.764C45.3743 101.884 45.5463 101.12 45.8903 100.472C46.2343 99.816 46.7223 99.312 47.3543 98.96C47.9943 98.608 48.7463 98.432 49.6103 98.432C50.4743 98.432 51.2223 98.608 51.8543 98.96C52.4943 99.312 52.9823 99.816 53.3183 100.472C53.6623 101.12 53.8343 101.884 53.8343 102.764C53.8343 103.644 53.6623 104.412 53.3183 105.068C52.9743 105.716 52.4823 106.22 51.8423 106.58C51.2103 106.932 50.4663 107.108 49.6103 107.108ZM49.6103 105.416C50.2503 105.416 50.7503 105.192 51.1103 104.744C51.4703 104.288 51.6503 103.628 51.6503 102.764C51.6503 101.9 51.4663 101.244 51.0983 100.796C50.7383 100.348 50.2423 100.124 49.6103 100.124C48.9703 100.124 48.4703 100.348 48.1103 100.796C47.7503 101.236 47.5703 101.892 47.5703 102.764C47.5703 103.636 47.7503 104.296 48.1103 104.744C48.4703 105.192 48.9703 105.416 49.6103 105.416ZM61.645 98.48C61.949 98.48 62.197 98.58 62.389 98.78C62.589 98.98 62.689 99.24 62.689 99.56V105.98C62.689 106.308 62.593 106.572 62.401 106.772C62.209 106.972 61.961 107.072 61.657 107.072C61.297 107.072 61.025 106.952 60.841 106.712L57.193 102.164V105.98C57.193 106.308 57.101 106.572 56.917 106.772C56.733 106.972 56.485 107.072 56.173 107.072C55.869 107.072 55.621 106.972 55.429 106.772C55.237 106.572 55.141 106.308 55.141 105.98V99.56C55.141 99.24 55.237 98.98 55.429 98.78C55.621 98.58 55.869 98.48 56.173 98.48C56.517 98.48 56.785 98.6 56.977 98.84L60.625 103.376V99.56C60.625 99.232 60.717 98.972 60.901 98.78C61.093 98.58 61.341 98.48 61.645 98.48ZM65.2431 107C64.9151 107 64.6631 106.912 64.4871 106.736C64.3111 106.56 64.2231 106.308 64.2231 105.98V99.56C64.2231 99.232 64.3111 98.98 64.4871 98.804C64.6631 98.628 64.9151 98.54 65.2431 98.54H69.3951C69.7391 98.54 69.9991 98.612 70.1751 98.756C70.3511 98.9 70.4391 99.108 70.4391 99.38C70.4391 99.956 70.0911 100.244 69.3951 100.244H66.3711V101.852H69.1551C69.8511 101.852 70.1991 102.136 70.1991 102.704C70.1991 102.976 70.1111 103.184 69.9351 103.328C69.7591 103.472 69.4991 103.544 69.1551 103.544H66.3711V105.296H69.3951C70.0911 105.296 70.4391 105.584 70.4391 106.16C70.4391 106.432 70.3511 106.64 70.1751 106.784C69.9991 106.928 69.7391 107 69.3951 107H65.2431Z" fill="#050505"/>
</svg>
