<svg width="22" height="19" viewBox="0 0 22 19" fill="none" xmlns="http://www.w3.org/2000/svg">
<path d="M8.16117 17C8.16117 16.1074 7.42156 15.3678 6.52893 15.3678C5.63631 15.3678 4.8967 16.1074 4.8967 17C4.8967 17.8926 5.63631 18.6322 6.52893 18.6322C7.42156 18.6322 8.16117 17.8926 8.16117 17ZM19.5868 17C19.5868 16.1074 18.8472 15.3678 17.9546 15.3678C17.0619 15.3678 16.3223 16.1074 16.3223 17C16.3223 17.8926 17.0619 18.6322 17.9546 18.6322C18.8472 18.6322 19.5868 17.8926 19.5868 17ZM21.219 3.12602C21.219 2.6797 20.8492 2.3099 20.4029 2.3099H5.08798C4.96046 1.69781 4.93496 0.677666 4.08058 0.677666H0.816117C0.369803 0.677666 0 1.04747 0 1.49378C0 1.9401 0.369803 2.3099 0.816117 2.3099H3.41749L5.67456 12.8046C5.47053 13.2 4.8967 14.1563 4.8967 14.5516C4.8967 14.998 5.2665 15.3678 5.71282 15.3678H18.7707C19.217 15.3678 19.5868 14.998 19.5868 14.5516C19.5868 14.1053 19.217 13.7355 18.7707 13.7355H7.03901C7.16653 13.4805 7.34505 13.2127 7.34505 12.9194C7.34505 12.6134 7.24304 12.3201 7.17928 12.0268L20.4922 10.4711C20.9002 10.4201 21.219 10.063 21.219 9.65495V3.12602Z" fill="#059599"/>
</svg>
