<svg width="66" height="66" viewBox="0 0 66 66" fill="none" xmlns="http://www.w3.org/2000/svg">
<circle cx="33" cy="33" r="33" fill="#2CBF88"/>
<path d="M43.8496 50.002L39.125 44.877L41.127 42.875L43.8496 45.5977L49.9355 39.4316L51.9375 41.834L43.8496 50.002ZM34 17.25C36.4557 17.25 38.7246 17.5703 40.8066 18.2109C42.9421 18.7982 44.6237 19.6257 45.8516 20.6934C47.0794 21.7077 47.6934 22.8555 47.6934 24.1367C47.6934 25.3646 47.0794 26.5124 45.8516 27.5801C44.6237 28.5944 42.9421 29.4219 40.8066 30.0625C38.7246 30.6497 36.4557 30.9434 34 30.9434C31.5443 30.9434 29.2487 30.6497 27.1133 30.0625C25.0312 29.4219 23.3763 28.5944 22.1484 27.5801C20.9206 26.5124 20.3066 25.3646 20.3066 24.1367C20.3066 22.8555 20.9206 21.7077 22.1484 20.6934C23.3763 19.6257 25.0312 18.7982 27.1133 18.2109C29.2487 17.5703 31.5443 17.25 34 17.25ZM20.3066 27.5C20.3066 28.7279 20.9206 29.8757 22.1484 30.9434C23.3763 31.9577 25.0312 32.7852 27.1133 33.4258C29.2487 34.013 31.5443 34.3066 34 34.3066C36.4557 34.3066 38.7246 34.013 40.8066 33.4258C42.9421 32.7852 44.6237 31.9577 45.8516 30.9434C47.0794 29.8757 47.6934 28.7279 47.6934 27.5V32.625C47.6934 33.3724 47.4798 34.0664 47.0527 34.707C46.0918 34.4401 45.1576 34.3066 44.25 34.3066C42.3815 34.3066 40.6465 34.7871 39.0449 35.748C37.4967 36.6556 36.2689 37.8835 35.3613 39.4316H34C31.5443 39.4316 29.2487 39.138 27.1133 38.5508C25.0312 37.9102 23.3763 37.0827 22.1484 36.0684C20.9206 35.0007 20.3066 33.8529 20.3066 32.625V27.5ZM20.3066 36.0684C20.3066 37.2962 20.9206 38.444 22.1484 39.5117C23.3763 40.526 25.0579 41.3535 27.1934 41.9941C29.3288 42.5814 31.651 42.875 34.1602 42.875L34 44.5566C34 45.7311 34.1868 46.8789 34.5605 48H34C31.5443 48 29.2487 47.7064 27.1133 47.1191C25.0312 46.4785 23.3763 45.651 22.1484 44.6367C20.9206 43.569 20.3066 42.4212 20.3066 41.1934V36.0684Z" fill="white"/>
</svg>
