<svg width="44" height="44" viewBox="0 0 44 44" fill="none" xmlns="http://www.w3.org/2000/svg">
<circle cx="22" cy="22" r="22" fill="#4E6EB0"/>
<path d="M17.7888 17.3474V27.3016H14.4741V17.3474H17.7888ZM17.9997 14.2737C18.0064 14.7626 17.8357 15.171 17.4874 15.4992C17.1459 15.8273 16.6939 15.9913 16.1314 15.9913H16.1113C15.5622 15.9913 15.1203 15.8273 14.7854 15.4992C14.4506 15.171 14.2832 14.7626 14.2832 14.2737C14.2832 13.7782 14.454 13.3697 14.7955 13.0483C15.1437 12.7201 15.5957 12.5561 16.1515 12.5561C16.7073 12.5561 17.1526 12.7201 17.4874 13.0483C17.8223 13.3697 17.993 13.7782 17.9997 14.2737ZM29.7118 21.5963V27.3016H26.4071V21.978C26.4071 21.2748 26.2698 20.7257 25.9953 20.3306C25.7274 19.9288 25.3055 19.728 24.7296 19.728C24.3078 19.728 23.9528 19.8451 23.6649 20.0795C23.3836 20.3072 23.1727 20.5918 23.0321 20.9333C22.9584 21.1342 22.9216 21.4054 22.9216 21.7469V27.3016H19.6169C19.6303 24.6297 19.637 22.4634 19.637 20.8027C19.637 19.142 19.6336 18.1509 19.627 17.8295L19.6169 17.3474H22.9216V18.7938H22.9015C23.0354 18.5795 23.1727 18.392 23.3133 18.2313C23.454 18.0706 23.6415 17.8965 23.8758 17.709C24.1169 17.5215 24.4082 17.3775 24.7497 17.2771C25.0979 17.1699 25.483 17.1163 25.9049 17.1163C27.0499 17.1163 27.9707 17.498 28.6671 18.2614C29.3636 19.0181 29.7118 20.1297 29.7118 21.5963Z" fill="white"/>
</svg>
