<svg width="98" height="142" viewBox="0 0 98 142" fill="none" xmlns="http://www.w3.org/2000/svg">
<path fill-rule="evenodd" clip-rule="evenodd" d="M10.0001 0H88C93.5229 0 98.0001 4.47717 98.0001 10.0001V132C98.0001 137.523 93.5229 142 88 142H10.0001C4.47723 142 0 137.523 0 132V10.0001C0 4.47717 4.47723 0 10.0001 0Z" fill="white"/>
<g opacity="0.2">
<mask id="path-2-inside-1" fill="white">
<path fill-rule="evenodd" clip-rule="evenodd" d="M33 6H11C8.23862 6 6 8.23862 6 11.0001V131C6 133.762 8.23862 136 11 136H87.0001C89.7615 136 92.0001 133.762 92.0001 131V11.0001C92.0001 8.23862 89.7615 6 87.0001 6H66.0001V10C66.0001 12.7615 63.7615 15.0001 61 15.0001H38C35.2385 15.0001 33 12.7615 33 10V6Z"/>
</mask>
<path fill-rule="evenodd" clip-rule="evenodd" d="M33 6H11C8.23862 6 6 8.23862 6 11.0001V131C6 133.762 8.23862 136 11 136H87.0001C89.7615 136 92.0001 133.762 92.0001 131V11.0001C92.0001 8.23862 89.7615 6 87.0001 6H66.0001V10C66.0001 12.7615 63.7615 15.0001 61 15.0001H38C35.2385 15.0001 33 12.7615 33 10V6Z" fill="white"/>
<path d="M33 6H34V5H33V6ZM66.0001 6V5H65.0001V6H66.0001ZM11 7H33V5H11V7ZM7 11.0001C7 8.7909 8.79091 7 11 7V5C7.68632 5 5 7.68635 5 11.0001H7ZM7 131V11.0001H5V131H7ZM11 135C8.79091 135 7 133.209 7 131H5C5 134.314 7.68632 137 11 137V135ZM87.0001 135H11V137H87.0001V135ZM91.0001 131C91.0001 133.209 89.2092 135 87.0001 135V137C90.3138 137 93.0001 134.314 93.0001 131H91.0001ZM91.0001 11.0001V131H93.0001V11.0001H91.0001ZM87.0001 7C89.2092 7 91.0001 8.79089 91.0001 11.0001H93.0001C93.0001 7.68635 90.3138 5 87.0001 5V7ZM66.0001 7H87.0001V5H66.0001V7ZM65.0001 6V10H67.0001V6H65.0001ZM65.0001 10C65.0001 12.2093 63.2092 14.0001 61 14.0001V16.0001C64.3138 16.0001 67.0001 13.3138 67.0001 10H65.0001ZM61 14.0001H38V16.0001H61V14.0001ZM38 14.0001C35.7909 14.0001 34 12.2093 34 10H32C32 13.3138 34.6862 16.0001 38 16.0001V14.0001ZM34 10V6H32V10H34Z" fill="#059599" mask="url(#path-2-inside-1)"/>
<path d="M41.5 6.5H57.5C58.0523 6.5 58.5 6.94773 58.5 7.50004C58.5 8.05232 58.0523 8.50002 57.5 8.50002H41.5C40.9477 8.50002 40.5 8.05233 40.5 7.50004C40.5 6.94772 40.9477 6.5 41.5 6.5Z" fill="white" stroke="#059599"/>
</g>
<path d="M44.9716 93.108C44.1076 93.108 43.3556 92.932 42.7156 92.58C42.0836 92.22 41.5956 91.716 41.2516 91.068C40.9076 90.412 40.7356 89.644 40.7356 88.764C40.7356 87.884 40.9076 87.12 41.2516 86.472C41.5956 85.816 42.0836 85.312 42.7156 84.96C43.3556 84.608 44.1076 84.432 44.9716 84.432C45.8356 84.432 46.5836 84.608 47.2156 84.96C47.8556 85.312 48.3436 85.816 48.6796 86.472C49.0236 87.12 49.1956 87.884 49.1956 88.764C49.1956 89.644 49.0236 90.412 48.6796 91.068C48.3356 91.716 47.8436 92.22 47.2036 92.58C46.5716 92.932 45.8276 93.108 44.9716 93.108ZM44.9716 91.416C45.6116 91.416 46.1116 91.192 46.4716 90.744C46.8316 90.288 47.0116 89.628 47.0116 88.764C47.0116 87.9 46.8276 87.244 46.4596 86.796C46.0996 86.348 45.6036 86.124 44.9716 86.124C44.3316 86.124 43.8316 86.348 43.4716 86.796C43.1116 87.236 42.9316 87.892 42.9316 88.764C42.9316 89.636 43.1116 90.296 43.4716 90.744C43.8316 91.192 44.3316 91.416 44.9716 91.416ZM57.0064 84.48C57.3104 84.48 57.5584 84.58 57.7504 84.78C57.9504 84.98 58.0504 85.24 58.0504 85.56V91.98C58.0504 92.308 57.9544 92.572 57.7624 92.772C57.5704 92.972 57.3224 93.072 57.0184 93.072C56.6584 93.072 56.3864 92.952 56.2024 92.712L52.5544 88.164V91.98C52.5544 92.308 52.4624 92.572 52.2784 92.772C52.0944 92.972 51.8464 93.072 51.5344 93.072C51.2304 93.072 50.9824 92.972 50.7904 92.772C50.5984 92.572 50.5024 92.308 50.5024 91.98V85.56C50.5024 85.24 50.5984 84.98 50.7904 84.78C50.9824 84.58 51.2304 84.48 51.5344 84.48C51.8784 84.48 52.1464 84.6 52.3384 84.84L55.9864 89.376V85.56C55.9864 85.232 56.0784 84.972 56.2624 84.78C56.4544 84.58 56.7024 84.48 57.0064 84.48ZM40.7311 107.072C40.3951 107.072 40.1271 106.976 39.9271 106.784C39.7351 106.584 39.6391 106.316 39.6391 105.98V99.56C39.6391 99.232 39.7351 98.972 39.9271 98.78C40.1271 98.58 40.3951 98.48 40.7311 98.48C41.0751 98.48 41.3471 98.58 41.5471 98.78C41.7471 98.972 41.8471 99.232 41.8471 99.56V105.98C41.8471 106.316 41.7471 106.584 41.5471 106.784C41.3471 106.976 41.0751 107.072 40.7311 107.072ZM47.3974 107.108C46.5334 107.108 45.7814 106.932 45.1414 106.58C44.5094 106.22 44.0214 105.716 43.6774 105.068C43.3334 104.412 43.1614 103.644 43.1614 102.764C43.1614 101.884 43.3334 101.12 43.6774 100.472C44.0214 99.816 44.5094 99.312 45.1414 98.96C45.7814 98.608 46.5334 98.432 47.3974 98.432C48.2614 98.432 49.0094 98.608 49.6414 98.96C50.2814 99.312 50.7694 99.816 51.1054 100.472C51.4494 101.12 51.6214 101.884 51.6214 102.764C51.6214 103.644 51.4494 104.412 51.1054 105.068C50.7614 105.716 50.2694 106.22 49.6294 106.58C48.9974 106.932 48.2534 107.108 47.3974 107.108ZM47.3974 105.416C48.0374 105.416 48.5374 105.192 48.8974 104.744C49.2574 104.288 49.4374 103.628 49.4374 102.764C49.4374 101.9 49.2534 101.244 48.8854 100.796C48.5254 100.348 48.0294 100.124 47.3974 100.124C46.7574 100.124 46.2574 100.348 45.8974 100.796C45.5374 101.236 45.3574 101.892 45.3574 102.764C45.3574 103.636 45.5374 104.296 45.8974 104.744C46.2574 105.192 46.7574 105.416 47.3974 105.416ZM56.1082 107.108C55.4682 107.108 54.8722 107.04 54.3202 106.904C53.7762 106.76 53.3282 106.564 52.9762 106.316C52.8402 106.212 52.7402 106.104 52.6762 105.992C52.6202 105.88 52.5922 105.736 52.5922 105.56C52.5922 105.32 52.6642 105.112 52.8082 104.936C52.9522 104.76 53.1202 104.672 53.3122 104.672C53.4162 104.672 53.5162 104.688 53.6122 104.72C53.7082 104.752 53.8282 104.812 53.9722 104.9C54.3002 105.084 54.6242 105.216 54.9442 105.296C55.2722 105.376 55.6402 105.416 56.0482 105.416C56.5202 105.416 56.8762 105.348 57.1162 105.212C57.3642 105.068 57.4882 104.86 57.4882 104.588C57.4882 104.404 57.3722 104.248 57.1402 104.12C56.9162 103.984 56.4842 103.852 55.8442 103.724C55.0522 103.556 54.4322 103.356 53.9842 103.124C53.5362 102.892 53.2202 102.62 53.0362 102.308C52.8602 101.988 52.7722 101.604 52.7722 101.156C52.7722 100.644 52.9242 100.18 53.2282 99.764C53.5322 99.348 53.9482 99.024 54.4762 98.792C55.0122 98.552 55.6122 98.432 56.2762 98.432C56.8602 98.432 57.3802 98.496 57.8362 98.624C58.2922 98.752 58.7082 98.952 59.0842 99.224C59.2282 99.328 59.3282 99.44 59.3842 99.56C59.4482 99.672 59.4802 99.812 59.4802 99.98C59.4802 100.22 59.4082 100.428 59.2642 100.604C59.1282 100.78 58.9642 100.868 58.7722 100.868C58.6682 100.868 58.5722 100.856 58.4842 100.832C58.3962 100.8 58.2722 100.736 58.1122 100.64C58.0722 100.616 57.9562 100.556 57.7642 100.46C57.5802 100.356 57.3602 100.276 57.1042 100.22C56.8562 100.156 56.5842 100.124 56.2882 100.124C55.8802 100.124 55.5522 100.204 55.3042 100.364C55.0562 100.516 54.9322 100.72 54.9322 100.976C54.9322 101.128 54.9762 101.252 55.0642 101.348C55.1522 101.444 55.3162 101.54 55.5562 101.636C55.7962 101.724 56.1522 101.816 56.6242 101.912C57.3922 102.08 57.9962 102.284 58.4362 102.524C58.8762 102.756 59.1882 103.028 59.3722 103.34C59.5562 103.652 59.6482 104.02 59.6482 104.444C59.6482 104.972 59.5002 105.44 59.2042 105.848C58.9082 106.248 58.4922 106.56 57.9562 106.784C57.4282 107 56.8122 107.108 56.1082 107.108Z" fill="#010101"/>
<path fill-rule="evenodd" clip-rule="evenodd" d="M61.9132 58.6613C61.4105 59.8072 60.8154 60.862 60.126 61.8317C59.1862 63.1539 58.4168 64.069 57.8238 64.5771C56.9046 65.4114 55.9196 65.8385 54.865 65.8628C54.1078 65.8628 53.1947 65.6502 52.1319 65.2191C51.0655 64.7898 50.0855 64.5771 49.1895 64.5771C48.2497 64.5771 47.2418 64.7898 46.1638 65.2191C45.0841 65.6502 44.2142 65.875 43.5492 65.8972C42.5379 65.9398 41.5298 65.5004 40.5235 64.5771C39.8813 64.0245 39.078 63.077 38.1156 61.7346C37.0832 60.3012 36.2343 58.639 35.5693 56.7439C34.8571 54.6971 34.5 52.7149 34.5 50.796C34.5 48.5978 34.9814 46.702 35.9456 45.1132C36.7034 43.8371 37.7114 42.8304 38.9731 42.0914C40.2349 41.3524 41.5981 40.9759 43.0663 40.9518C43.8695 40.9518 44.9229 41.197 46.2321 41.6789C47.5375 42.1624 48.3757 42.4075 48.7432 42.4075C49.0179 42.4075 49.9491 42.1209 51.5276 41.5493C53.0203 41.0193 54.2802 40.7997 55.3123 40.8862C58.109 41.109 60.2102 42.1968 61.6075 44.1566C59.1062 45.652 57.8689 47.7464 57.8936 50.4333C57.9162 52.5261 58.6855 54.2677 60.1978 55.6506C60.8831 56.2924 61.6485 56.7884 62.5 57.1407C62.3153 57.6691 62.1204 58.1753 61.9132 58.6613ZM55.499 33.7563C55.499 35.3967 54.8916 36.9283 53.681 38.3459C52.2201 40.0312 50.453 41.005 48.5367 40.8514C48.5124 40.6546 48.4982 40.4475 48.4982 40.2299C48.4982 38.6551 49.1929 36.9698 50.4267 35.5917C51.0427 34.8941 51.8261 34.314 52.7762 33.8513C53.7241 33.3953 54.6208 33.1433 55.4642 33.1001C55.4888 33.3193 55.499 33.5387 55.499 33.7563Z" fill="#009199"/>
</svg>
