<svg width="98" height="142" viewBox="0 0 98 142" fill="none" xmlns="http://www.w3.org/2000/svg">
<path fill-rule="evenodd" clip-rule="evenodd" d="M10.0001 0H88C93.5229 0 98.0001 4.47717 98.0001 9.99993V132C98.0001 137.523 93.5229 142 88 142H10.0001C4.47723 142 0 137.523 0 132V9.99993C0 4.47717 4.47723 0 10.0001 0Z" fill="white"/>
<g opacity="0.2">
<rect x="6.5" y="21.5" width="85" height="99" rx="4.5" fill="white" stroke="#059599"/>
<rect x="40.5" y="10.5" width="18" height="2" rx="1" fill="white" stroke="#059599"/>
<circle cx="49" cy="131" r="3.5" fill="white" stroke="#059599"/>
</g>
<path fill-rule="evenodd" clip-rule="evenodd" d="M35 43.8234L45.4617 42.4028L45.4663 52.4635L35.0098 52.5229L35 43.8234ZM45.4567 53.6229L45.4649 63.6924L35.0082 62.2591L35.0077 53.5554L45.4567 53.6229ZM46.725 42.2171L60.5963 40.1987V52.3357L46.725 52.4455V42.2171ZM60.5995 53.7175L60.5963 65.7998L46.725 63.8479L46.7055 53.6949L60.5995 53.7175Z" fill="#009199"/>
<path d="M44.9716 93.108C44.1076 93.108 43.3556 92.932 42.7156 92.58C42.0836 92.22 41.5956 91.716 41.2516 91.068C40.9076 90.412 40.7356 89.644 40.7356 88.764C40.7356 87.884 40.9076 87.12 41.2516 86.472C41.5956 85.816 42.0836 85.312 42.7156 84.96C43.3556 84.608 44.1076 84.432 44.9716 84.432C45.8356 84.432 46.5836 84.608 47.2156 84.96C47.8556 85.312 48.3436 85.816 48.6796 86.472C49.0236 87.12 49.1956 87.884 49.1956 88.764C49.1956 89.644 49.0236 90.412 48.6796 91.068C48.3356 91.716 47.8436 92.22 47.2036 92.58C46.5716 92.932 45.8276 93.108 44.9716 93.108ZM44.9716 91.416C45.6116 91.416 46.1116 91.192 46.4716 90.744C46.8316 90.288 47.0116 89.628 47.0116 88.764C47.0116 87.9 46.8276 87.244 46.4596 86.796C46.0996 86.348 45.6036 86.124 44.9716 86.124C44.3316 86.124 43.8316 86.348 43.4716 86.796C43.1116 87.236 42.9316 87.892 42.9316 88.764C42.9316 89.636 43.1116 90.296 43.4716 90.744C43.8316 91.192 44.3316 91.416 44.9716 91.416ZM57.0064 84.48C57.3104 84.48 57.5584 84.58 57.7504 84.78C57.9504 84.98 58.0504 85.24 58.0504 85.56V91.98C58.0504 92.308 57.9544 92.572 57.7624 92.772C57.5704 92.972 57.3224 93.072 57.0184 93.072C56.6584 93.072 56.3864 92.952 56.2024 92.712L52.5544 88.164V91.98C52.5544 92.308 52.4624 92.572 52.2784 92.772C52.0944 92.972 51.8464 93.072 51.5344 93.072C51.2304 93.072 50.9824 92.972 50.7904 92.772C50.5984 92.572 50.5024 92.308 50.5024 91.98V85.56C50.5024 85.24 50.5984 84.98 50.7904 84.78C50.9824 84.58 51.2304 84.48 51.5344 84.48C51.8784 84.48 52.1464 84.6 52.3384 84.84L55.9864 89.376V85.56C55.9864 85.232 56.0784 84.972 56.2624 84.78C56.4544 84.58 56.7024 84.48 57.0064 84.48ZM27.583 99.152C27.663 98.928 27.791 98.756 27.967 98.636C28.151 98.516 28.351 98.456 28.567 98.456C28.831 98.456 29.059 98.54 29.251 98.708C29.451 98.876 29.551 99.104 29.551 99.392C29.551 99.52 29.519 99.68 29.455 99.872L27.043 106.4C26.963 106.624 26.815 106.8 26.599 106.928C26.391 107.048 26.159 107.108 25.903 107.108C25.647 107.108 25.415 107.048 25.207 106.928C24.999 106.8 24.855 106.624 24.775 106.4L23.215 101.948L21.583 106.4C21.495 106.624 21.347 106.8 21.139 106.928C20.931 107.048 20.703 107.108 20.455 107.108C20.199 107.108 19.967 107.048 19.759 106.928C19.551 106.8 19.407 106.624 19.327 106.4L16.903 99.872C16.847 99.712 16.819 99.56 16.819 99.416C16.819 99.12 16.923 98.888 17.131 98.72C17.347 98.544 17.595 98.456 17.875 98.456C18.099 98.456 18.303 98.516 18.487 98.636C18.679 98.748 18.815 98.92 18.895 99.152L20.539 103.88L22.279 99.152C22.359 98.928 22.487 98.756 22.663 98.636C22.847 98.516 23.047 98.456 23.263 98.456C23.479 98.456 23.675 98.516 23.851 98.636C24.027 98.756 24.155 98.932 24.235 99.164L25.867 103.988L27.583 99.152ZM31.7721 107.072C31.4361 107.072 31.1681 106.976 30.9681 106.784C30.7761 106.584 30.6801 106.316 30.6801 105.98V99.56C30.6801 99.232 30.7761 98.972 30.9681 98.78C31.1681 98.58 31.4361 98.48 31.7721 98.48C32.1161 98.48 32.3881 98.58 32.5881 98.78C32.7881 98.972 32.8881 99.232 32.8881 99.56V105.98C32.8881 106.316 32.7881 106.584 32.5881 106.784C32.3881 106.976 32.1161 107.072 31.7721 107.072ZM40.9224 98.48C41.2264 98.48 41.4744 98.58 41.6664 98.78C41.8664 98.98 41.9664 99.24 41.9664 99.56V105.98C41.9664 106.308 41.8704 106.572 41.6784 106.772C41.4864 106.972 41.2384 107.072 40.9344 107.072C40.5744 107.072 40.3024 106.952 40.1184 106.712L36.4704 102.164V105.98C36.4704 106.308 36.3784 106.572 36.1944 106.772C36.0104 106.972 35.7624 107.072 35.4504 107.072C35.1464 107.072 34.8984 106.972 34.7064 106.772C34.5144 106.572 34.4184 106.308 34.4184 105.98V99.56C34.4184 99.24 34.5144 98.98 34.7064 98.78C34.8984 98.58 35.1464 98.48 35.4504 98.48C35.7944 98.48 36.0624 98.6 36.2544 98.84L39.9024 103.376V99.56C39.9024 99.232 39.9944 98.972 40.1784 98.78C40.3704 98.58 40.6184 98.48 40.9224 98.48ZM44.5204 107C44.1924 107 43.9404 106.912 43.7644 106.736C43.5884 106.56 43.5004 106.308 43.5004 105.98V99.56C43.5004 99.232 43.5884 98.98 43.7644 98.804C43.9404 98.628 44.1924 98.54 44.5204 98.54H46.9444C47.8804 98.54 48.6844 98.712 49.3564 99.056C50.0364 99.392 50.5564 99.876 50.9164 100.508C51.2764 101.14 51.4564 101.892 51.4564 102.764C51.4564 103.644 51.2764 104.404 50.9164 105.044C50.5644 105.676 50.0484 106.16 49.3684 106.496C48.6964 106.832 47.8884 107 46.9444 107H44.5204ZM46.7884 105.224C47.6124 105.224 48.2284 105.024 48.6364 104.624C49.0524 104.216 49.2604 103.596 49.2604 102.764C49.2604 101.932 49.0524 101.316 48.6364 100.916C48.2284 100.516 47.6124 100.316 46.7884 100.316H45.7084V105.224H46.7884ZM56.8017 107.108C55.9377 107.108 55.1857 106.932 54.5457 106.58C53.9137 106.22 53.4257 105.716 53.0817 105.068C52.7377 104.412 52.5657 103.644 52.5657 102.764C52.5657 101.884 52.7377 101.12 53.0817 100.472C53.4257 99.816 53.9137 99.312 54.5457 98.96C55.1857 98.608 55.9377 98.432 56.8017 98.432C57.6657 98.432 58.4137 98.608 59.0457 98.96C59.6857 99.312 60.1737 99.816 60.5097 100.472C60.8537 101.12 61.0257 101.884 61.0257 102.764C61.0257 103.644 60.8537 104.412 60.5097 105.068C60.1657 105.716 59.6737 106.22 59.0337 106.58C58.4017 106.932 57.6577 107.108 56.8017 107.108ZM56.8017 105.416C57.4417 105.416 57.9417 105.192 58.3017 104.744C58.6617 104.288 58.8417 103.628 58.8417 102.764C58.8417 101.9 58.6577 101.244 58.2897 100.796C57.9297 100.348 57.4337 100.124 56.8017 100.124C56.1617 100.124 55.6617 100.348 55.3017 100.796C54.9417 101.236 54.7617 101.892 54.7617 102.764C54.7617 103.636 54.9417 104.296 55.3017 104.744C55.6617 105.192 56.1617 105.416 56.8017 105.416ZM72.4306 99.152C72.5106 98.928 72.6386 98.756 72.8146 98.636C72.9986 98.516 73.1986 98.456 73.4146 98.456C73.6786 98.456 73.9066 98.54 74.0986 98.708C74.2986 98.876 74.3986 99.104 74.3986 99.392C74.3986 99.52 74.3666 99.68 74.3026 99.872L71.8906 106.4C71.8106 106.624 71.6626 106.8 71.4466 106.928C71.2386 107.048 71.0066 107.108 70.7506 107.108C70.4946 107.108 70.2626 107.048 70.0546 106.928C69.8466 106.8 69.7026 106.624 69.6226 106.4L68.0626 101.948L66.4306 106.4C66.3426 106.624 66.1946 106.8 65.9866 106.928C65.7786 107.048 65.5506 107.108 65.3026 107.108C65.0466 107.108 64.8146 107.048 64.6066 106.928C64.3986 106.8 64.2546 106.624 64.1746 106.4L61.7506 99.872C61.6946 99.712 61.6666 99.56 61.6666 99.416C61.6666 99.12 61.7706 98.888 61.9786 98.72C62.1946 98.544 62.4426 98.456 62.7226 98.456C62.9466 98.456 63.1506 98.516 63.3346 98.636C63.5266 98.748 63.6626 98.92 63.7426 99.152L65.3866 103.88L67.1266 99.152C67.2066 98.928 67.3346 98.756 67.5106 98.636C67.6946 98.516 67.8946 98.456 68.1106 98.456C68.3266 98.456 68.5226 98.516 68.6986 98.636C68.8746 98.756 69.0026 98.932 69.0826 99.164L70.7146 103.988L72.4306 99.152ZM78.5203 107.108C77.8803 107.108 77.2843 107.04 76.7323 106.904C76.1883 106.76 75.7403 106.564 75.3883 106.316C75.2523 106.212 75.1523 106.104 75.0883 105.992C75.0323 105.88 75.0043 105.736 75.0043 105.56C75.0043 105.32 75.0763 105.112 75.2203 104.936C75.3643 104.76 75.5323 104.672 75.7243 104.672C75.8283 104.672 75.9283 104.688 76.0243 104.72C76.1203 104.752 76.2403 104.812 76.3843 104.9C76.7123 105.084 77.0363 105.216 77.3563 105.296C77.6843 105.376 78.0523 105.416 78.4603 105.416C78.9323 105.416 79.2883 105.348 79.5283 105.212C79.7763 105.068 79.9003 104.86 79.9003 104.588C79.9003 104.404 79.7843 104.248 79.5523 104.12C79.3283 103.984 78.8963 103.852 78.2563 103.724C77.4643 103.556 76.8443 103.356 76.3963 103.124C75.9483 102.892 75.6323 102.62 75.4483 102.308C75.2723 101.988 75.1843 101.604 75.1843 101.156C75.1843 100.644 75.3363 100.18 75.6403 99.764C75.9443 99.348 76.3603 99.024 76.8883 98.792C77.4243 98.552 78.0243 98.432 78.6883 98.432C79.2723 98.432 79.7923 98.496 80.2483 98.624C80.7043 98.752 81.1203 98.952 81.4963 99.224C81.6403 99.328 81.7403 99.44 81.7963 99.56C81.8603 99.672 81.8923 99.812 81.8923 99.98C81.8923 100.22 81.8203 100.428 81.6763 100.604C81.5403 100.78 81.3763 100.868 81.1843 100.868C81.0803 100.868 80.9843 100.856 80.8963 100.832C80.8083 100.8 80.6843 100.736 80.5243 100.64C80.4843 100.616 80.3683 100.556 80.1763 100.46C79.9923 100.356 79.7723 100.276 79.5163 100.22C79.2683 100.156 78.9963 100.124 78.7003 100.124C78.2923 100.124 77.9643 100.204 77.7163 100.364C77.4683 100.516 77.3443 100.72 77.3443 100.976C77.3443 101.128 77.3883 101.252 77.4763 101.348C77.5643 101.444 77.7283 101.54 77.9683 101.636C78.2083 101.724 78.5643 101.816 79.0363 101.912C79.8043 102.08 80.4083 102.284 80.8483 102.524C81.2883 102.756 81.6003 103.028 81.7843 103.34C81.9683 103.652 82.0603 104.02 82.0603 104.444C82.0603 104.972 81.9123 105.44 81.6163 105.848C81.3203 106.248 80.9043 106.56 80.3683 106.784C79.8403 107 79.2243 107.108 78.5203 107.108Z" fill="black"/>
</svg>
