<svg width="98" height="142" viewBox="0 0 98 142" fill="none" xmlns="http://www.w3.org/2000/svg">
<path fill-rule="evenodd" clip-rule="evenodd" d="M10.0001 0H88C93.5229 0 98.0001 4.47717 98.0001 9.99993V132C98.0001 137.523 93.5229 142 88 142H10.0001C4.47723 142 0 137.523 0 132V9.99993C0 4.47717 4.47723 0 10.0001 0Z" fill="white"/>
<rect opacity="0.2" x="6.5" y="6.5" width="85" height="129" rx="4.5" fill="white" stroke="#059599"/>
<circle opacity="0.2" cx="49" cy="17" r="3.5" stroke="#059599"/>
<path fill-rule="evenodd" clip-rule="evenodd" d="M58.6359 53.8415C57.7312 53.8415 56.9977 53.1241 56.9977 52.2391C56.9977 51.3541 57.7311 50.6367 58.6359 50.6367C59.5407 50.6367 60.2743 51.3541 60.2743 52.2391V52.2391C60.2743 53.1241 59.5407 53.8415 58.6359 53.8415M40.5977 53.8415C39.6928 53.8415 38.9594 53.1241 38.9594 52.2391C38.9594 51.3541 39.6928 50.6367 40.5977 50.6367C41.5025 50.6367 42.236 51.3541 42.236 52.2391V52.2391C42.236 53.1241 41.5025 53.8415 40.5977 53.8415M59.2161 44.2267L62.4927 38.7016C62.678 38.3843 62.5651 37.9802 62.2408 37.7992C61.9163 37.618 61.5033 37.7284 61.3181 38.0457C61.3171 38.0473 61.3162 38.0489 61.3152 38.0506L58.0046 43.6426C55.3751 42.4672 52.5164 41.8635 49.6253 41.8731C46.731 41.8662 43.8684 42.4637 41.2291 43.6258L37.9184 38.0339C37.7332 37.7166 37.3201 37.6062 36.9958 37.7873C36.6733 37.9674 36.5596 38.368 36.7409 38.6849L40.0004 44.21C34.2747 47.2645 30.5131 52.9405 30 59.3H69.1995C68.7021 52.9442 64.9432 47.2688 59.2161 44.2267Z" fill="#009199"/>
<path d="M44.9716 93.108C44.1076 93.108 43.3556 92.932 42.7156 92.58C42.0836 92.22 41.5956 91.716 41.2516 91.068C40.9076 90.412 40.7356 89.644 40.7356 88.764C40.7356 87.884 40.9076 87.12 41.2516 86.472C41.5956 85.816 42.0836 85.312 42.7156 84.96C43.3556 84.608 44.1076 84.432 44.9716 84.432C45.8356 84.432 46.5836 84.608 47.2156 84.96C47.8556 85.312 48.3436 85.816 48.6796 86.472C49.0236 87.12 49.1956 87.884 49.1956 88.764C49.1956 89.644 49.0236 90.412 48.6796 91.068C48.3356 91.716 47.8436 92.22 47.2036 92.58C46.5716 92.932 45.8276 93.108 44.9716 93.108ZM44.9716 91.416C45.6116 91.416 46.1116 91.192 46.4716 90.744C46.8316 90.288 47.0116 89.628 47.0116 88.764C47.0116 87.9 46.8276 87.244 46.4596 86.796C46.0996 86.348 45.6036 86.124 44.9716 86.124C44.3316 86.124 43.8316 86.348 43.4716 86.796C43.1116 87.236 42.9316 87.892 42.9316 88.764C42.9316 89.636 43.1116 90.296 43.4716 90.744C43.8316 91.192 44.3316 91.416 44.9716 91.416ZM57.0064 84.48C57.3104 84.48 57.5584 84.58 57.7504 84.78C57.9504 84.98 58.0504 85.24 58.0504 85.56V91.98C58.0504 92.308 57.9544 92.572 57.7624 92.772C57.5704 92.972 57.3224 93.072 57.0184 93.072C56.6584 93.072 56.3864 92.952 56.2024 92.712L52.5544 88.164V91.98C52.5544 92.308 52.4624 92.572 52.2784 92.772C52.0944 92.972 51.8464 93.072 51.5344 93.072C51.2304 93.072 50.9824 92.972 50.7904 92.772C50.5984 92.572 50.5024 92.308 50.5024 91.98V85.56C50.5024 85.24 50.5984 84.98 50.7904 84.78C50.9824 84.58 51.2304 84.48 51.5344 84.48C51.8784 84.48 52.1464 84.6 52.3384 84.84L55.9864 89.376V85.56C55.9864 85.232 56.0784 84.972 56.2624 84.78C56.4544 84.58 56.7024 84.48 57.0064 84.48ZM29.1239 105.644C29.1959 105.796 29.2319 105.944 29.2319 106.088C29.2319 106.352 29.1239 106.576 28.9079 106.76C28.6999 106.944 28.4599 107.036 28.1879 107.036C28.0039 107.036 27.8359 106.988 27.6839 106.892C27.5319 106.796 27.4119 106.652 27.3239 106.46L26.7839 105.248H22.8959L22.3439 106.46C22.2559 106.652 22.1319 106.796 21.9719 106.892C21.8199 106.988 21.6519 107.036 21.4679 107.036C21.1959 107.036 20.9479 106.944 20.7239 106.76C20.5079 106.576 20.3999 106.352 20.3999 106.088C20.3999 105.944 20.4359 105.796 20.5079 105.644L23.6759 99.14C23.7799 98.924 23.9319 98.76 24.1319 98.648C24.3399 98.528 24.5679 98.468 24.8159 98.468C25.0559 98.468 25.2799 98.528 25.4879 98.648C25.6959 98.76 25.8519 98.924 25.9559 99.14L29.1239 105.644ZM26.0399 103.592L24.8399 100.916L23.6399 103.592H26.0399ZM36.6568 98.48C36.9608 98.48 37.2088 98.58 37.4008 98.78C37.6008 98.98 37.7008 99.24 37.7008 99.56V105.98C37.7008 106.308 37.6048 106.572 37.4128 106.772C37.2208 106.972 36.9728 107.072 36.6688 107.072C36.3088 107.072 36.0368 106.952 35.8528 106.712L32.2048 102.164V105.98C32.2048 106.308 32.1128 106.572 31.9288 106.772C31.7448 106.972 31.4968 107.072 31.1848 107.072C30.8808 107.072 30.6328 106.972 30.4408 106.772C30.2488 106.572 30.1528 106.308 30.1528 105.98V99.56C30.1528 99.24 30.2488 98.98 30.4408 98.78C30.6328 98.58 30.8808 98.48 31.1848 98.48C31.5288 98.48 31.7968 98.6 31.9888 98.84L35.6368 103.376V99.56C35.6368 99.232 35.7288 98.972 35.9128 98.78C36.1048 98.58 36.3528 98.48 36.6568 98.48ZM40.2548 107C39.9268 107 39.6748 106.912 39.4988 106.736C39.3228 106.56 39.2348 106.308 39.2348 105.98V99.56C39.2348 99.232 39.3228 98.98 39.4988 98.804C39.6748 98.628 39.9268 98.54 40.2548 98.54H42.6788C43.6148 98.54 44.4188 98.712 45.0908 99.056C45.7708 99.392 46.2908 99.876 46.6508 100.508C47.0108 101.14 47.1908 101.892 47.1908 102.764C47.1908 103.644 47.0108 104.404 46.6508 105.044C46.2988 105.676 45.7828 106.16 45.1028 106.496C44.4308 106.832 43.6228 107 42.6788 107H40.2548ZM42.5228 105.224C43.3468 105.224 43.9628 105.024 44.3708 104.624C44.7868 104.216 44.9948 103.596 44.9948 102.764C44.9948 101.932 44.7868 101.316 44.3708 100.916C43.9628 100.516 43.3468 100.316 42.5228 100.316H41.4428V105.224H42.5228ZM55.632 105.596C55.776 105.812 55.848 106.016 55.848 106.208C55.848 106.464 55.74 106.68 55.524 106.856C55.316 107.024 55.072 107.108 54.792 107.108C54.6 107.108 54.42 107.064 54.252 106.976C54.084 106.888 53.94 106.756 53.82 106.58L52.26 104.3C52.148 104.14 52.028 104.024 51.9 103.952C51.78 103.872 51.636 103.832 51.468 103.832H50.688V105.98C50.688 106.316 50.592 106.584 50.4 106.784C50.208 106.976 49.944 107.072 49.608 107.072C49.272 107.072 49.004 106.976 48.804 106.784C48.612 106.584 48.516 106.316 48.516 105.98V99.56C48.516 99.232 48.604 98.98 48.78 98.804C48.956 98.628 49.208 98.54 49.536 98.54H52.548C53.572 98.54 54.34 98.764 54.852 99.212C55.372 99.652 55.632 100.292 55.632 101.132C55.632 101.772 55.456 102.316 55.104 102.764C54.752 103.204 54.256 103.5 53.616 103.652C53.88 103.692 54.108 103.78 54.3 103.916C54.5 104.052 54.696 104.256 54.888 104.528L55.632 105.596ZM52.2 102.176C52.688 102.176 53.036 102.1 53.244 101.948C53.46 101.796 53.568 101.548 53.568 101.204C53.568 100.852 53.46 100.6 53.244 100.448C53.036 100.288 52.688 100.208 52.2 100.208H50.664V102.176H52.2ZM60.9618 107.108C60.0978 107.108 59.3458 106.932 58.7058 106.58C58.0738 106.22 57.5858 105.716 57.2418 105.068C56.8978 104.412 56.7258 103.644 56.7258 102.764C56.7258 101.884 56.8978 101.12 57.2418 100.472C57.5858 99.816 58.0738 99.312 58.7058 98.96C59.3458 98.608 60.0978 98.432 60.9618 98.432C61.8258 98.432 62.5738 98.608 63.2058 98.96C63.8458 99.312 64.3338 99.816 64.6698 100.472C65.0138 101.12 65.1858 101.884 65.1858 102.764C65.1858 103.644 65.0138 104.412 64.6698 105.068C64.3258 105.716 63.8338 106.22 63.1938 106.58C62.5618 106.932 61.8178 107.108 60.9618 107.108ZM60.9618 105.416C61.6018 105.416 62.1018 105.192 62.4618 104.744C62.8218 104.288 63.0018 103.628 63.0018 102.764C63.0018 101.9 62.8178 101.244 62.4498 100.796C62.0898 100.348 61.5938 100.124 60.9618 100.124C60.3218 100.124 59.8218 100.348 59.4618 100.796C59.1018 101.236 58.9218 101.892 58.9218 102.764C58.9218 103.636 59.1018 104.296 59.4618 104.744C59.8218 105.192 60.3218 105.416 60.9618 105.416ZM67.5846 107.072C67.2486 107.072 66.9806 106.976 66.7806 106.784C66.5886 106.584 66.4926 106.316 66.4926 105.98V99.56C66.4926 99.232 66.5886 98.972 66.7806 98.78C66.9806 98.58 67.2486 98.48 67.5846 98.48C67.9286 98.48 68.2006 98.58 68.4006 98.78C68.6006 98.972 68.7006 99.232 68.7006 99.56V105.98C68.7006 106.316 68.6006 106.584 68.4006 106.784C68.2006 106.976 67.9286 107.072 67.5846 107.072ZM71.2509 107C70.9229 107 70.6709 106.912 70.4949 106.736C70.3189 106.56 70.2309 106.308 70.2309 105.98V99.56C70.2309 99.232 70.3189 98.98 70.4949 98.804C70.6709 98.628 70.9229 98.54 71.2509 98.54H73.6749C74.6109 98.54 75.4149 98.712 76.0869 99.056C76.7669 99.392 77.2869 99.876 77.6469 100.508C78.0069 101.14 78.1869 101.892 78.1869 102.764C78.1869 103.644 78.0069 104.404 77.6469 105.044C77.2949 105.676 76.7789 106.16 76.0989 106.496C75.4269 106.832 74.6189 107 73.6749 107H71.2509ZM73.5189 105.224C74.3429 105.224 74.9589 105.024 75.3669 104.624C75.7829 104.216 75.9909 103.596 75.9909 102.764C75.9909 101.932 75.7829 101.316 75.3669 100.916C74.9589 100.516 74.3429 100.316 73.5189 100.316H72.4389V105.224H73.5189Z" fill="black"/>
</svg>
