<svg width="64" height="65" viewBox="0 0 64 65" fill="none" xmlns="http://www.w3.org/2000/svg">
<path d="M44.9823 38.6608L43.9895 38.5417L43.8552 39.6608H44.9823V38.6608ZM44.9823 26.3443V25.3443H43.8552L43.9895 26.4634L44.9823 26.3443ZM55.2939 26.3443L56.2615 26.0919L56.0665 25.3443H55.2939V26.3443ZM55.2939 38.6608V39.6608H56.0665L56.2615 38.9133L55.2939 38.6608ZM39.5401 55.5603L38.6613 55.0832L37.4523 57.3104L39.8564 56.509L39.5401 55.5603ZM43.8366 44.6759V43.6759H43.0695L42.8708 44.4168L43.8366 44.6759ZM52.8592 44.6759L53.7195 45.1857L54.6142 43.6759H52.8592V44.6759ZM47.1306 51.407L47.7675 52.178L47.7708 52.1753L47.1306 51.407ZM38.8241 38.6608V39.6608H39.7112L39.8169 38.78L38.8241 38.6608ZM24.5025 38.6608L23.5109 38.7902L23.6244 39.6608H24.5025V38.6608ZM24.5025 26.3443V25.3443H23.6244L23.5109 26.2149L24.5025 26.3443ZM38.8241 26.3443L39.8169 26.2251L39.7112 25.3443H38.8241V26.3443ZM31.6633 56.8493L30.8375 57.4132L31.6633 58.6224L32.4891 57.4132L31.6633 56.8493ZM25.7914 44.6759V43.6759H24.4532L24.8324 44.9592L25.7914 44.6759ZM37.5351 44.6759L38.4941 44.9592L38.8733 43.6759H37.5351V44.6759ZM19.4899 20.3292V21.3292H20.2491L20.4531 20.598L19.4899 20.3292ZM10.4673 20.3292L9.60702 19.8194L8.71232 21.3292H10.4673V20.3292ZM16.0527 13.7413L16.6896 14.5122L16.6929 14.5095L16.0527 13.7413ZM23.7864 9.4448L24.6643 9.92365L25.8813 7.69239L23.4702 8.49612L23.7864 9.4448ZM10.4673 44.6759V43.6759H8.71232L9.60702 45.1857L10.4673 44.6759ZM19.4899 44.6759L20.4531 44.4071L20.2491 43.6759H19.4899V44.6759ZM23.7864 55.5603L23.4702 56.509L25.8813 57.3127L24.6643 55.0815L23.7864 55.5603ZM16.0527 51.407L15.3966 52.1617L15.414 52.1768L15.432 52.1911L16.0527 51.407ZM8.03264 38.6608L7.06503 38.9133L7.26005 39.6608H8.03264V38.6608ZM8.03264 26.3443V25.3443H7.26005L7.06503 26.0919L8.03264 26.3443ZM18.3442 26.3443L19.3371 26.4634L19.4714 25.3443H18.3442V26.3443ZM18.3442 38.6608V39.6608H19.4714L19.3371 38.5417L18.3442 38.6608ZM31.6633 8.15586L32.4891 7.5919L31.6633 6.38269L30.8375 7.5919L31.6633 8.15586ZM37.5351 20.3292V21.3292H38.8733L38.4941 20.0459L37.5351 20.3292ZM25.7914 20.3292L24.8324 20.0459L24.4532 21.3292H25.7914V20.3292ZM52.8592 20.3292V21.3292H54.6142L53.7195 19.8194L52.8592 20.3292ZM43.8366 20.3292L42.8708 20.5883L43.0695 21.3292H43.8366V20.3292ZM39.5401 9.4448L39.8564 8.49612L37.4523 7.69475L38.6613 9.92189L39.5401 9.4448ZM47.1306 13.7413L46.4744 14.4959L46.4918 14.511L46.5099 14.5253L47.1306 13.7413ZM16.3392 6.15084L16.8353 7.01908L16.8419 7.0153L16.8485 7.01141L16.3392 6.15084ZM5.16833 17.1785L4.30775 16.6691L4.30387 16.6757L4.30008 16.6823L5.16833 17.1785ZM3.44974 44.2463L2.52122 44.6177L2.52457 44.6258L3.44974 44.2463ZM19.9196 60.7161L19.54 61.6413L19.5482 61.6446L19.9196 60.7161ZM43.2637 60.7161L42.8923 59.7876L42.8842 59.7909L43.2637 60.7161ZM59.8768 44.2463L60.802 44.6258L60.8053 44.6176L59.8768 44.2463ZM59.8768 20.9021L58.9483 21.2735L58.9516 21.2816L59.8768 20.9021ZM43.2637 4.28903L42.8842 5.21423L42.8924 5.21751L43.2637 4.28903ZM45.9752 38.78C46.2647 36.3678 46.412 34.2731 46.412 32.5026H44.412C44.412 34.1692 44.2729 36.18 43.9895 38.5417L45.9752 38.78ZM46.412 32.5026C46.412 30.732 46.2647 28.6373 45.9752 26.2251L43.9895 26.4634C44.2729 28.8251 44.412 30.836 44.412 32.5026H46.412ZM44.9823 27.3443H55.2939V25.3443H44.9823V27.3443ZM54.3263 26.5967C54.8815 28.7252 55.1532 30.6924 55.1532 32.5026H57.1532C57.1532 30.4936 56.852 28.3553 56.2615 26.0919L54.3263 26.5967ZM55.1532 32.5026C55.1532 34.3127 54.8815 36.2799 54.3263 38.4084L56.2615 38.9133C56.852 36.6499 57.1532 34.5115 57.1532 32.5026H55.1532ZM55.2939 37.6608H44.9823V39.6608H55.2939V37.6608ZM40.419 56.0374C42.2729 52.6223 43.7332 48.9204 44.8025 44.935L42.8708 44.4168C41.8395 48.2605 40.4355 51.8149 38.6613 55.0832L40.419 56.0374ZM43.8366 45.6759H52.8592V43.6759H43.8366V45.6759ZM51.9989 44.1661C50.5291 46.6464 48.6939 48.8026 46.4904 50.6388L47.7708 52.1753C50.1502 50.1924 52.134 47.8612 53.7195 45.1857L51.9989 44.1661ZM46.4937 50.6361C44.3983 52.367 41.9784 53.6935 39.2239 54.6116L39.8564 56.509C42.8305 55.5176 45.4709 54.0752 47.7675 52.178L46.4937 50.6361ZM38.8241 37.6608H24.5025V39.6608H38.8241V37.6608ZM25.4941 38.5315C25.2124 36.3718 25.0728 34.3627 25.0728 32.5026H23.0728C23.0728 34.4615 23.2197 36.5579 23.5109 38.7902L25.4941 38.5315ZM25.0728 32.5026C25.0728 30.6424 25.2124 28.6333 25.4941 26.4736L23.5109 26.2149C23.2197 28.4472 23.0728 30.5436 23.0728 32.5026H25.0728ZM24.5025 27.3443H38.8241V25.3443H24.5025V27.3443ZM37.8312 26.4634C38.1146 28.8251 38.2537 30.836 38.2537 32.5026H40.2537C40.2537 30.732 40.1064 28.6373 39.8169 26.2251L37.8312 26.4634ZM38.2537 32.5026C38.2537 34.1692 38.1146 36.18 37.8312 38.5417L39.8169 38.78C40.1064 36.3678 40.2537 34.2731 40.2537 32.5026H38.2537ZM32.4891 56.2853C29.8696 52.4497 27.9598 48.4858 26.7504 44.3926L24.8324 44.9592C26.1054 49.268 28.1102 53.4197 30.8375 57.4132L32.4891 56.2853ZM25.7914 45.6759H37.5351V43.6759H25.7914V45.6759ZM36.5761 44.3926C35.3667 48.4858 33.4569 52.4497 30.8375 56.2853L32.4891 57.4132C35.2164 53.4197 37.2211 49.268 38.4941 44.9592L36.5761 44.3926ZM19.4899 19.3292H10.4673V21.3292H19.4899V19.3292ZM11.3276 20.839C12.7995 18.3552 14.5872 16.249 16.6896 14.5122L15.4159 12.9703C13.1263 14.8617 11.1904 17.1474 9.60702 19.8194L11.3276 20.839ZM16.6929 14.5095C18.8874 12.6808 21.3551 11.3093 24.1026 10.3935L23.4702 8.49612C20.489 9.48983 17.801 10.9827 15.4125 12.9731L16.6929 14.5095ZM22.9085 8.96595C21.1476 12.1943 19.6891 15.8951 18.5267 20.0604L20.4531 20.598C21.5821 16.5523 22.988 12.9968 24.6643 9.92365L22.9085 8.96595ZM10.4673 45.6759H19.4899V43.6759H10.4673V45.6759ZM18.5267 44.9447C19.6891 49.1101 21.1476 52.8108 22.9085 56.0392L24.6643 55.0815C22.988 52.0083 21.5821 48.4528 20.4531 44.4071L18.5267 44.9447ZM24.1026 54.6116C21.3449 53.6924 18.8707 52.3625 16.6734 50.623L15.432 52.1911C17.8176 54.0797 20.4993 55.5187 23.4702 56.509L24.1026 54.6116ZM16.7089 50.6524C14.596 48.8151 12.8024 46.6548 11.3276 44.1661L9.60702 45.1857C11.1875 47.8528 13.1175 50.1799 15.3966 52.1617L16.7089 50.6524ZM9.00026 38.4084C8.44499 36.2799 8.17335 34.3127 8.17335 32.5026H6.17335C6.17335 34.5115 6.47457 36.6499 7.06503 38.9133L9.00026 38.4084ZM8.17335 32.5026C8.17335 30.6924 8.44499 28.7252 9.00026 26.5967L7.06503 26.0919C6.47457 28.3553 6.17335 30.4936 6.17335 32.5026H8.17335ZM8.03264 27.3443H18.3442V25.3443H8.03264V27.3443ZM17.3513 26.2251C17.0618 28.6373 16.9145 30.732 16.9145 32.5026H18.9145C18.9145 30.836 19.0537 28.8251 19.3371 26.4634L17.3513 26.2251ZM16.9145 32.5026C16.9145 34.2731 17.0618 36.3678 17.3513 38.78L19.3371 38.5417C19.0537 36.18 18.9145 34.1692 18.9145 32.5026H16.9145ZM18.3442 37.6608H8.03264V39.6608H18.3442V37.6608ZM30.8375 8.71982C33.4569 12.5554 35.3667 16.5193 36.5761 20.6126L38.4941 20.0459C37.2211 15.7371 35.2164 11.5854 32.4891 7.5919L30.8375 8.71982ZM37.5351 19.3292H25.7914V21.3292H37.5351V19.3292ZM26.7504 20.6126C27.9598 16.5193 29.8696 12.5554 32.4891 8.71982L30.8375 7.5919C28.1102 11.5854 26.1054 15.7371 24.8324 20.0459L26.7504 20.6126ZM52.8592 19.3292H43.8366V21.3292H52.8592V19.3292ZM44.8025 20.0701C43.7332 16.0847 42.2729 12.3828 40.419 8.96771L38.6613 9.92189C40.4355 13.1902 41.8395 16.7446 42.8708 20.5883L44.8025 20.0701ZM39.2239 10.3935C41.968 11.3082 44.3816 12.676 46.4744 14.4959L47.7868 12.9867C45.4876 10.9874 42.8409 9.49096 39.8564 8.49612L39.2239 10.3935ZM46.5099 14.5253C48.7029 16.2615 50.5321 18.3637 51.9989 20.839L53.7195 19.8194C52.1311 17.1389 50.1412 14.8492 47.7513 12.9572L46.5099 14.5253ZM31.6633 0.997575C25.9499 0.997575 20.6654 2.42838 15.8298 5.29026L16.8485 7.01141C21.3697 4.33561 26.3013 2.99757 31.6633 2.99757V0.997575ZM15.843 5.28259C11.0127 8.04278 7.16407 11.8429 4.30775 16.6691L6.0289 17.6878C8.71026 13.1572 12.3089 9.60562 16.8353 7.01908L15.843 5.28259ZM4.30008 16.6823C1.53791 21.5161 0.158282 26.7959 0.158282 32.5026H2.15828C2.15828 27.1339 3.45202 22.1976 6.03657 17.6746L4.30008 16.6823ZM0.158282 32.5026C0.158282 36.6431 0.947618 40.6835 2.52126 44.6176L4.37821 43.8749C2.89658 40.1708 2.15828 36.3821 2.15828 32.5026H0.158282ZM2.52457 44.6258C4.10281 48.4728 6.3732 51.8779 9.33056 54.8353L10.7448 53.421C7.9735 50.6498 5.85193 47.467 4.3749 43.8667L2.52457 44.6258ZM9.33056 54.8353C12.2879 57.7926 15.693 60.063 19.54 61.6413L20.2991 59.7909C16.6989 58.3139 13.516 56.1923 10.7448 53.421L9.33056 54.8353ZM19.5482 61.6446C23.4823 63.2182 27.5227 64.0075 31.6633 64.0075V62.0075C27.7837 62.0075 23.995 61.2692 20.291 59.7876L19.5482 61.6446ZM31.6633 64.0075C35.804 64.0075 39.7997 63.2181 43.6433 61.6413L42.8842 59.7909C39.2806 61.2693 35.5426 62.0075 31.6633 62.0075V64.0075ZM43.6351 61.6446C47.578 60.0674 51.0344 57.7968 53.996 54.8353L52.5817 53.421C49.8147 56.1881 46.5877 58.3095 42.8924 59.7876L43.6351 61.6446ZM53.996 54.8353C56.9533 51.8779 59.2237 48.4728 60.802 44.6258L58.9516 43.8667C57.4746 47.467 55.353 50.6498 52.5817 53.421L53.996 54.8353ZM60.8053 44.6176C62.3789 40.6835 63.1682 36.6431 63.1682 32.5026H61.1682C61.1682 36.3821 60.4299 40.1708 58.9483 43.8749L60.8053 44.6176ZM63.1682 32.5026C63.1682 28.3618 62.3788 24.3661 60.802 20.5225L58.9516 21.2816C60.43 24.8853 61.1682 28.6232 61.1682 32.5026H63.1682ZM60.8053 20.5307C59.2281 16.5878 56.9576 13.1314 53.996 10.1699L52.5817 11.5841C55.3488 14.3511 57.4702 17.5781 58.9483 21.2735L60.8053 20.5307ZM53.996 10.1699C51.0344 7.20827 47.578 4.93769 43.6351 3.36055L42.8924 5.21751C46.5877 6.69564 49.8147 8.81702 52.5817 11.5841L53.996 10.1699ZM43.6433 3.36386C39.7997 1.787 35.804 0.997575 31.6633 0.997575V2.99757C35.5426 2.99757 39.2806 3.73579 42.8842 5.2142L43.6433 3.36386Z" fill="#059599"/>
</svg>
