<svg width="43" height="66" viewBox="0 0 43 66" fill="none" xmlns="http://www.w3.org/2000/svg">
<path d="M35.4614 53.2594V54.2594H36.4614V53.2594H35.4614ZM35.4614 13.4757H36.4614V12.4757H35.4614V13.4757ZM6.89185 13.4757V12.4757H5.89185V13.4757H6.89185ZM6.89185 53.2594H5.89185V54.2594H6.89185V53.2594ZM39.3329 3.73002L38.5981 4.4083L38.6253 4.43769L38.6546 4.46482L39.3329 3.73002ZM39.3329 63.0051L38.6546 62.2703L38.6253 62.2974L38.5981 62.3268L39.3329 63.0051ZM2.88678 63.0051L2.17967 63.7122L2.88678 63.0051ZM2.88678 3.73002L3.59389 4.43713L2.88678 3.73002ZM12.6325 19.0828V18.0828H11.6325V19.0828H12.6325ZM29.7208 19.0828H30.7208V18.0828H29.7208V19.0828ZM29.7208 24.8234V25.8234H30.7208V24.8234H29.7208ZM12.6325 24.8234H11.6325V25.8234H12.6325V24.8234ZM12.6325 30.564V29.564H11.6325V30.564H12.6325ZM23.9802 30.564H24.9802V29.564H23.9802V30.564ZM23.9802 36.1711V37.1711H24.9802V36.1711H23.9802ZM12.6325 36.1711H11.6325V37.1711H12.6325V36.1711ZM36.4614 53.2594V13.4757H34.4614V53.2594H36.4614ZM35.4614 12.4757H6.89185V14.4757H35.4614V12.4757ZM5.89185 13.4757V53.2594H7.89185V13.4757H5.89185ZM6.89185 54.2594H35.4614V52.2594H6.89185V54.2594ZM35.4614 2.99449C36.6827 2.99449 37.7107 3.44693 38.5981 4.4083L40.0677 3.05174C38.8191 1.69907 37.2661 0.994491 35.4614 0.994491V2.99449ZM38.6546 4.46482C39.6026 5.33982 40.0685 6.40664 40.0685 7.73509H42.0685C42.0685 5.85949 41.3773 4.25626 40.0112 2.99522L38.6546 4.46482ZM40.0685 7.73509V59H42.0685V7.73509H40.0685ZM40.0685 59C40.0685 60.3285 39.6026 61.3953 38.6546 62.2703L40.0112 63.7399C41.3773 62.4788 42.0685 60.8756 42.0685 59H40.0685ZM38.5981 62.3268C37.7107 63.2882 36.6827 63.7406 35.4614 63.7406V65.7406C37.2661 65.7406 38.8191 65.036 40.0677 63.6833L38.5981 62.3268ZM35.4614 63.7406H6.89185V65.7406H35.4614V63.7406ZM6.89185 63.7406C5.66698 63.7406 4.58024 63.2843 3.59389 62.298L2.17967 63.7122C3.50737 65.0399 5.09068 65.7406 6.89185 65.7406V63.7406ZM3.59389 62.298C2.72567 61.4297 2.28475 60.3547 2.28475 59H0.284753C0.284753 60.8494 0.91186 62.4444 2.17967 63.7122L3.59389 62.298ZM2.28475 59V7.73509H0.284753V59H2.28475ZM2.28475 7.73509C2.28475 6.38043 2.72567 5.30535 3.59389 4.43713L2.17967 3.02291C0.91186 4.29073 0.284753 5.8857 0.284753 7.73509H2.28475ZM3.59389 4.43713C4.58024 3.45078 5.66698 2.99449 6.89185 2.99449V0.994491C5.09068 0.994491 3.50737 1.69522 2.17967 3.02291L3.59389 4.43713ZM6.89185 2.99449H35.4614V0.994491H6.89185V2.99449ZM12.6325 20.0828H29.7208V18.0828H12.6325V20.0828ZM28.7208 19.0828V24.8234H30.7208V19.0828H28.7208ZM29.7208 23.8234H12.6325V25.8234H29.7208V23.8234ZM13.6325 24.8234V19.0828H11.6325V24.8234H13.6325ZM12.6325 31.564H23.9802V29.564H12.6325V31.564ZM22.9802 30.564V36.1711H24.9802V30.564H22.9802ZM23.9802 35.1711H12.6325V37.1711H23.9802V35.1711ZM13.6325 36.1711V30.564H11.6325V36.1711H13.6325Z" fill="#059599"/>
</svg>
