<svg width="60" height="60" viewBox="0 0 60 60" fill="none" xmlns="http://www.w3.org/2000/svg">
<path d="M39.7227 30.3664H38.7227V31.3664H39.7227V30.3664ZM46.1355 30.3664V31.3664H47.1355V30.3664H46.1355ZM43.8984 22.4623L43.0259 22.9509L43.0377 22.9719L43.0504 22.9923L43.8984 22.4623ZM38.0822 16.6461L37.5522 17.4941L37.5726 17.5068L37.5936 17.5186L38.0822 16.6461ZM30.1782 14.4091V13.4091H29.1782V14.4091H30.1782ZM30.1782 20.8218H29.1782V21.8218H30.1782V20.8218ZM36.8892 23.6554L36.1632 24.3431L36.1818 24.3627L36.2014 24.3813L36.8892 23.6554ZM52.3991 30.3664H51.3991V31.3664H52.3991V30.3664ZM58.8118 30.3664V31.3664H59.8118V30.3664H58.8118ZM54.9343 16.0496L54.0684 16.5499L54.0734 16.5583L54.9343 16.0496ZM44.495 5.61022L43.9863 6.47114L43.9936 6.47547L44.001 6.47967L44.495 5.61022ZM30.1782 1.73275V0.732746H29.1782V1.73275H30.1782ZM30.1782 8.14548H29.1782V9.14548H30.1782V8.14548ZM49.4164 19.1814L48.5545 19.6884L49.4164 19.1814ZM44.3458 39.7618L44.6621 38.8131L44.651 38.8094L44.6399 38.806L44.3458 39.7618ZM34.0556 47.5167L33.6005 48.4072L34.2483 48.7383L34.7627 48.2238L34.0556 47.5167ZM21.8267 38.7178L21.11 39.4152L21.1195 39.425L21.1293 39.4346L21.8267 38.7178ZM13.0278 26.4889L12.3207 25.7818L11.8063 26.2962L12.1374 26.944L13.0278 26.4889ZM20.7828 16.1987L21.7385 15.9046L21.7351 15.8935L21.7314 15.8825L20.7828 16.1987ZM5.57115 25.5941L4.64355 25.9679L4.64848 25.9797L5.57115 25.5941ZM34.9504 54.9734L34.5648 55.8961L34.5767 55.9009L34.9504 54.9734ZM39.7227 31.3664H46.1355V29.3664H39.7227V31.3664ZM47.1355 30.3664C47.1355 27.3006 46.3397 24.4815 44.7464 21.9323L43.0504 22.9923C44.4399 25.2154 45.1355 27.6657 45.1355 30.3664H47.1355ZM44.771 21.9737C43.2889 19.3272 41.2173 17.2556 38.5708 15.7736L37.5936 17.5186C39.9183 18.8204 41.7241 20.6263 43.0259 22.9509L44.771 21.9737ZM38.6122 15.7981C36.0631 14.2049 33.244 13.4091 30.1782 13.4091V15.4091C32.8789 15.4091 35.3291 16.1046 37.5522 17.4941L38.6122 15.7981ZM29.1782 14.4091V20.8218H31.1782V14.4091H29.1782ZM30.1782 21.8218C32.5978 21.8218 34.5691 22.6604 36.1632 24.3431L37.6151 22.9676C35.63 20.8723 33.1274 19.8218 30.1782 19.8218V21.8218ZM36.2014 24.3813C37.8841 25.9754 38.7227 27.9468 38.7227 30.3664H40.7227C40.7227 27.4172 39.6723 24.9145 37.5769 22.9294L36.2014 24.3813ZM52.3991 31.3664H58.8118V29.3664H52.3991V31.3664ZM59.8118 30.3664C59.8118 25.0207 58.4729 20.0723 55.7953 15.5408L54.0734 16.5583C56.5657 20.776 57.8118 25.3721 57.8118 30.3664H59.8118ZM55.8002 15.5493C53.1288 10.9257 49.5224 7.31659 44.989 4.74076L44.001 6.47967C48.2167 8.87496 51.5699 12.2254 54.0685 16.5498L55.8002 15.5493ZM45.0037 4.74929C40.4723 2.07161 35.5238 0.732746 30.1782 0.732746V2.73275C35.1724 2.73275 39.7686 3.97886 43.9863 6.47114L45.0037 4.74929ZM29.1782 1.73275V8.14548H31.1782V1.73275H29.1782ZM30.1782 9.14548C34.0835 9.14548 37.6357 10.0957 40.8562 11.9901L41.8702 10.2662C38.33 8.18373 34.4254 7.14549 30.1782 7.14549V9.14548ZM40.8562 11.9901C44.09 13.8923 46.6522 16.4546 48.5545 19.6884L50.2783 18.6743C48.2037 15.1474 45.3971 12.3409 41.8702 10.2662L40.8562 11.9901ZM48.5545 19.6884C50.4489 22.9089 51.3991 26.461 51.3991 30.3664H53.3991C53.3991 26.1191 52.3608 22.2146 50.2783 18.6743L48.5545 19.6884ZM55.68 40.5514C51.8047 40.5514 48.1339 39.9704 44.6621 38.8131L44.0296 40.7105C47.7162 41.9393 51.6015 42.5514 55.68 42.5514V40.5514ZM44.6399 38.806C43.8608 38.5663 43.084 38.5045 42.3346 38.6748C41.5811 38.8461 40.9209 39.2372 40.3578 39.8003L41.772 41.2146C42.1037 40.8829 42.4377 40.7024 42.7779 40.6251C43.1221 40.5468 43.5384 40.5596 44.0518 40.7176L44.6399 38.806ZM40.3578 39.8003L33.3485 46.8096L34.7627 48.2238L41.772 41.2146L40.3578 39.8003ZM34.5107 46.6263C30.1276 44.386 26.1326 41.5122 22.524 38.0011L21.1293 39.4346C24.878 43.0819 29.0356 46.074 33.6005 48.4072L34.5107 46.6263ZM22.5434 38.0205C19.0324 34.4119 16.1585 30.4169 13.9183 26.0338L12.1374 26.944C14.4706 31.5089 17.4626 35.6665 21.11 39.4152L22.5434 38.0205ZM13.7349 27.196L20.7442 20.1867L19.33 18.7725L12.3207 25.7818L13.7349 27.196ZM20.7442 20.1867C21.3073 19.6236 21.6985 18.9634 21.8697 18.2099C22.0401 17.4605 21.9783 16.6837 21.7385 15.9046L19.827 16.4928C19.9849 17.0062 19.9977 17.4224 19.9195 17.7667C19.8422 18.1068 19.6616 18.4409 19.33 18.7725L20.7442 20.1867ZM21.7314 15.8825C20.5742 12.4106 19.9932 8.73981 19.9932 4.86455H17.9932C17.9932 8.94308 18.6052 12.8283 19.8341 16.5149L21.7314 15.8825ZM19.9932 4.86455C19.9932 3.72239 19.6018 2.71677 18.8055 1.92044L17.3913 3.33465C17.788 3.73139 17.9932 4.21711 17.9932 4.86455H19.9932ZM18.8055 1.92044C18.0091 1.12411 17.0035 0.732746 15.8614 0.732746V2.73275C16.5088 2.73275 16.9945 2.93791 17.3913 3.33465L18.8055 1.92044ZM15.8614 0.732746H4.67634V2.73275H15.8614V0.732746ZM4.67634 0.732746C3.53418 0.732746 2.52857 1.12411 1.73224 1.92044L3.14645 3.33465C3.54319 2.93791 4.02891 2.73275 4.67634 2.73275V0.732746ZM1.73224 1.92044C0.935907 2.71677 0.544542 3.72239 0.544542 4.86455H2.54454C2.54454 4.21711 2.74971 3.73139 3.14645 3.33465L1.73224 1.92044ZM0.544542 4.86455C0.544542 12.1515 1.91151 19.1882 4.64363 25.9679L6.49866 25.2203C3.86198 18.6774 2.54454 11.8944 2.54454 4.86455H0.544542ZM4.64848 25.9797C7.48218 32.7603 11.4823 38.7357 16.6456 43.899L18.0598 42.4847C13.082 37.507 9.22776 31.7505 6.49382 25.2085L4.64848 25.9797ZM16.6456 43.899C21.8089 49.0622 27.7842 53.0624 34.5648 55.8961L35.336 54.0507C28.7941 51.3168 23.0376 47.4625 18.0598 42.4847L16.6456 43.899ZM34.5767 55.9009C41.3564 58.633 48.3931 60 55.68 60V58C48.6501 58 41.8671 56.6826 35.3242 54.0459L34.5767 55.9009ZM55.68 60C56.8222 60 57.8278 59.6086 58.6241 58.8123L57.2099 57.3981C56.8131 57.7948 56.3274 58 55.68 58V60ZM58.6241 58.8123C59.4204 58.016 59.8118 57.0104 59.8118 55.8682H57.8118C57.8118 56.5156 57.6066 57.0014 57.2099 57.3981L58.6241 58.8123ZM59.8118 55.8682V44.6832H57.8118V55.8682H59.8118ZM59.8118 44.6832C59.8118 43.541 59.4204 42.5354 58.6241 41.7391L57.2099 43.1533C57.6066 43.55 57.8118 44.0357 57.8118 44.6832H59.8118ZM58.6241 41.7391C57.8278 40.9427 56.8222 40.5514 55.68 40.5514V42.5514C56.3274 42.5514 56.8131 42.7566 57.2099 43.1533L58.6241 41.7391Z" fill="#059599"/>
</svg>
