<svg width="96" height="17" viewBox="0 0 96 17" fill="none" xmlns="http://www.w3.org/2000/svg">
<path d="M17.0115 7.07031C17.0115 6.76897 16.69 6.64844 16.449 6.60826L11.4066 5.875L9.14652 1.30469C9.05612 1.11384 8.88536 0.892857 8.65433 0.892857C8.42331 0.892857 8.25255 1.11384 8.16215 1.30469L5.9021 5.875L0.859692 6.60826C0.608576 6.64844 0.297192 6.76897 0.297192 7.07031C0.297192 7.25112 0.427772 7.42187 0.548308 7.55246L4.20456 11.1083L3.34072 16.1306C3.33067 16.2009 3.32063 16.2612 3.32063 16.3315C3.32063 16.5926 3.45121 16.8337 3.7425 16.8337C3.88313 16.8337 4.01371 16.7835 4.14429 16.7132L8.65433 14.3426L13.1644 16.7132C13.2849 16.7835 13.4255 16.8337 13.5662 16.8337C13.8575 16.8337 13.978 16.5926 13.978 16.3315C13.978 16.2612 13.978 16.2009 13.968 16.1306L13.1041 11.1083L16.7503 7.55246C16.8809 7.42187 17.0115 7.25112 17.0115 7.07031ZM36.6837 7.07031C36.6837 6.76897 36.3623 6.64844 36.1212 6.60826L31.0788 5.875L28.8187 1.30469C28.7283 1.11384 28.5576 0.892857 28.3265 0.892857C28.0955 0.892857 27.9248 1.11384 27.8344 1.30469L25.5743 5.875L20.5319 6.60826C20.2808 6.64844 19.9694 6.76897 19.9694 7.07031C19.9694 7.25112 20.1 7.42187 20.2205 7.55246L23.8768 11.1083L23.0129 16.1306C23.0029 16.2009 22.9928 16.2612 22.9928 16.3315C22.9928 16.5926 23.1234 16.8337 23.4147 16.8337C23.5553 16.8337 23.6859 16.7835 23.8165 16.7132L28.3265 14.3426L32.8366 16.7132C32.9571 16.7835 33.0977 16.8337 33.2384 16.8337C33.5297 16.8337 33.6502 16.5926 33.6502 16.3315C33.6502 16.2612 33.6502 16.2009 33.6402 16.1306L32.7763 11.1083L36.4225 7.55246C36.5531 7.42187 36.6837 7.25112 36.6837 7.07031ZM56.3559 7.07031C56.3559 6.76897 56.0345 6.64844 55.7934 6.60826L50.751 5.875L48.4909 1.30469C48.4005 1.11384 48.2298 0.892857 47.9987 0.892857C47.7677 0.892857 47.597 1.11384 47.5066 1.30469L45.2465 5.875L40.2041 6.60826C39.953 6.64844 39.6416 6.76897 39.6416 7.07031C39.6416 7.25112 39.7722 7.42187 39.8927 7.55246L43.549 11.1083L42.6851 16.1306C42.6751 16.2009 42.665 16.2612 42.665 16.3315C42.665 16.5926 42.7956 16.8337 43.0869 16.8337C43.2275 16.8337 43.3581 16.7835 43.4887 16.7132L47.9987 14.3426L52.5088 16.7132C52.6293 16.7835 52.77 16.8337 52.9106 16.8337C53.2019 16.8337 53.3224 16.5926 53.3224 16.3315C53.3224 16.2612 53.3224 16.2009 53.3124 16.1306L52.4485 11.1083L56.0947 7.55246C56.2253 7.42187 56.3559 7.25112 56.3559 7.07031ZM76.0281 7.07031C76.0281 6.76897 75.7067 6.64844 75.4656 6.60826L70.4232 5.875L68.1631 1.30469C68.0727 1.11384 67.902 0.892857 67.671 0.892857C67.4399 0.892857 67.2692 1.11384 67.1788 1.30469L64.9187 5.875L59.8763 6.60826C59.6252 6.64844 59.3138 6.76897 59.3138 7.07031C59.3138 7.25112 59.4444 7.42187 59.5649 7.55246L63.2212 11.1083L62.3573 16.1306C62.3473 16.2009 62.3372 16.2612 62.3372 16.3315C62.3372 16.5926 62.4678 16.8337 62.7591 16.8337C62.8997 16.8337 63.0303 16.7835 63.1609 16.7132L67.671 14.3426L72.181 16.7132C72.3015 16.7835 72.4422 16.8337 72.5828 16.8337C72.8741 16.8337 72.9946 16.5926 72.9946 16.3315C72.9946 16.2612 72.9946 16.2009 72.9846 16.1306L72.1207 11.1083L75.7669 7.55246C75.8975 7.42187 76.0281 7.25112 76.0281 7.07031ZM95.7003 7.07031C95.7003 6.76897 95.3789 6.64844 95.1378 6.60826L90.0954 5.875L87.8353 1.30469C87.7449 1.11384 87.5742 0.892857 87.3432 0.892857C87.1121 0.892857 86.9414 1.11384 86.851 1.30469L84.5909 5.875L79.5485 6.60826C79.2974 6.64844 78.986 6.76897 78.986 7.07031C78.986 7.25112 79.1166 7.42187 79.2371 7.55246L82.8934 11.1083L82.0295 16.1306C82.0195 16.2009 82.0094 16.2612 82.0094 16.3315C82.0094 16.5926 82.14 16.8337 82.4313 16.8337C82.5719 16.8337 82.7025 16.7835 82.8331 16.7132L87.3432 14.3426L91.8532 16.7132C91.9737 16.7835 92.1144 16.8337 92.255 16.8337C92.5463 16.8337 92.6668 16.5926 92.6668 16.3315C92.6668 16.2612 92.6668 16.2009 92.6568 16.1306L91.7929 11.1083L95.4391 7.55246C95.5697 7.42187 95.7003 7.25112 95.7003 7.07031Z" fill="#3EDDA2"/>
</svg>
