<svg width="159" height="122" viewBox="0 0 159 122" fill="none" xmlns="http://www.w3.org/2000/svg">
<g style="mix-blend-mode:luminosity" opacity="0.3">
<path d="M9.99994 27.5H149C154.247 27.5 158.5 31.7534 158.5 37V112C158.5 117.247 154.247 121.5 149 121.5H9.99994C4.75318 121.5 0.5 117.247 0.5 112V37C0.5 31.7534 4.75318 27.5 9.99994 27.5Z" fill="#2CBF88" fill-opacity="0.01" stroke="#059599"/>
<mask id="path-2-inside-1" fill="white">
<path fill-rule="evenodd" clip-rule="evenodd" d="M143.844 36.0312H14.0938C11.3323 36.0312 9.09375 38.2698 9.09375 41.0312V59.1168H12.7604C15.6835 59.1168 18.0528 61.6181 18.0528 64.7036V85.2577C18.0528 88.3431 15.6835 90.8444 12.7604 90.8444H9.09375V107.969C9.09375 110.73 11.3323 112.969 14.0938 112.969H143.844C146.605 112.969 148.844 110.73 148.844 107.969V41.0312C148.844 38.2698 146.605 36.0312 143.844 36.0312Z"/>
</mask>
<path fill-rule="evenodd" clip-rule="evenodd" d="M143.844 36.0312H14.0938C11.3323 36.0312 9.09375 38.2698 9.09375 41.0312V59.1168H12.7604C15.6835 59.1168 18.0528 61.6181 18.0528 64.7036V85.2577C18.0528 88.3431 15.6835 90.8444 12.7604 90.8444H9.09375V107.969C9.09375 110.73 11.3323 112.969 14.0938 112.969H143.844C146.605 112.969 148.844 110.73 148.844 107.969V41.0312C148.844 38.2698 146.605 36.0312 143.844 36.0312Z" fill="white"/>
<path d="M9.09375 59.1168H8.09375V60.1168H9.09375V59.1168ZM9.09375 90.8444V89.8444H8.09375V90.8444H9.09375ZM14.0938 37.0312H143.844V35.0312H14.0938V37.0312ZM10.0938 41.0312C10.0938 38.8221 11.8846 37.0312 14.0938 37.0312V35.0312C10.78 35.0312 8.09375 37.7175 8.09375 41.0312H10.0938ZM10.0938 59.1168V41.0312H8.09375V59.1168H10.0938ZM12.7604 58.1168H9.09375V60.1168H12.7604V58.1168ZM19.0528 64.7036C19.0528 61.1175 16.2861 58.1168 12.7604 58.1168V60.1168C15.0808 60.1168 17.0528 62.1187 17.0528 64.7036H19.0528ZM19.0528 85.2577V64.7036H17.0528V85.2577H19.0528ZM12.7604 91.8444C16.2861 91.8444 19.0528 88.8437 19.0528 85.2577H17.0528C17.0528 87.8425 15.0809 89.8444 12.7604 89.8444V91.8444ZM9.09375 91.8444H12.7604V89.8444H9.09375V91.8444ZM10.0938 107.969V90.8444H8.09375V107.969H10.0938ZM14.0938 111.969C11.8846 111.969 10.0938 110.178 10.0938 107.969H8.09375C8.09375 111.282 10.78 113.969 14.0938 113.969V111.969ZM143.844 111.969H14.0938V113.969H143.844V111.969ZM147.844 107.969C147.844 110.178 146.053 111.969 143.844 111.969V113.969C147.157 113.969 149.844 111.282 149.844 107.969H147.844ZM147.844 41.0312V107.969H149.844V41.0312H147.844ZM143.844 37.0312C146.053 37.0312 147.844 38.8221 147.844 41.0312H149.844C149.844 37.7175 147.157 35.0312 143.844 35.0312V37.0312Z" fill="#059599" mask="url(#path-2-inside-1)"/>
<path d="M10.4219 66.5H12.5782C13.0873 66.5 13.5001 66.9127 13.5001 67.4219V82.5781C13.5001 83.0873 13.0873 83.5 12.5782 83.5H10.4219C9.91274 83.5 9.5 83.0873 9.5 82.5781V67.4219C9.5 66.9127 9.91274 66.5 10.4219 66.5Z" fill="white" stroke="#059599"/>
</g>
<circle cx="79" cy="32" r="32" fill="#2CBF88"/>
<path d="M67.5 31.5L76 40L91.5 24.5" stroke="white" stroke-width="5"/>
</svg>
