<svg width="66" height="66" viewBox="0 0 66 66" fill="none" xmlns="http://www.w3.org/2000/svg">
<circle cx="33" cy="33" r="33" fill="#2CBF88"/>
<path d="M25.6401 42.478C27.677 44.0542 30.2276 45 33 45C36.0292 45 38.7957 43.8733 40.9086 42.0285C40.9319 42.0051 40.9202 41.9934 40.8969 42.0051C39.9514 42.6356 37.2549 44.0192 33.0058 44.0192C29.3113 44.0192 26.9825 43.1961 25.6634 42.4605C25.6342 42.443 25.6226 42.4605 25.6401 42.478ZM33.8171 43.091C36.7704 43.091 40.0156 42.2853 41.9591 40.6916C42.4903 40.2595 42.9981 39.6816 43.4475 38.9051C43.7101 38.4556 43.9611 37.9243 44.1712 37.4048C44.1829 37.3814 44.1654 37.3697 44.1479 37.3931C42.3444 40.0494 37.1148 41.7074 31.7218 41.7074C27.9047 41.7074 23.8016 40.4872 22.1965 38.1579C22.179 38.1345 22.1673 38.1462 22.1732 38.1695C23.6615 41.3513 28.2023 43.091 33.8171 43.091ZM30.5895 37.8076C24.4494 37.8076 21.5486 34.947 21.0233 32.9912C21.0175 32.9679 21 32.9737 21 32.9971C21 33.6568 21.0642 34.5033 21.1809 35.0637C21.2335 35.3381 21.4553 35.7701 21.7821 36.1087C23.2704 37.6616 26.9767 39.8334 33.3969 39.8334C42.1459 39.8334 44.1479 36.9202 44.5564 35.9569C44.8482 35.2739 45 34.0304 45 32.9912C45 32.7402 44.9942 32.5359 44.9825 32.3432C44.9825 32.314 44.965 32.3082 44.9591 32.3374C44.5214 34.6901 37.0506 37.8076 30.5895 37.8076ZM22.1556 27.8538C21.8054 28.5544 21.4144 29.7336 21.2977 30.3408C21.2451 30.6035 21.2685 30.7261 21.3619 30.9246C22.0973 32.4892 25.821 34.9878 34.5058 34.9878C39.8054 34.9878 43.9202 33.686 44.5856 31.3099C44.7082 30.8721 44.714 30.4108 44.5564 29.7862C44.3813 29.0915 44.0486 28.28 43.7685 27.7079C43.7568 27.6903 43.7451 27.6903 43.7451 27.7137C43.8502 30.8312 35.1595 32.8395 30.7763 32.8395C26.0253 32.8395 22.0681 30.9479 22.0681 28.5544C22.0681 28.3267 22.1148 28.0932 22.1732 27.8538C22.1848 27.8363 22.1673 27.8305 22.1556 27.8538ZM40.9261 24.0241C40.9786 24.1058 41.0019 24.1875 41.0019 24.2985C41.0019 25.6295 36.9222 27.9881 30.4319 27.9881C25.6634 27.9881 24.7646 26.2192 24.7646 25.0924C24.7646 24.6896 24.9163 24.281 25.2607 23.8606C25.2782 23.8373 25.2607 23.8256 25.2432 23.8431C24.6245 24.3685 24.0525 24.9582 23.5564 25.6003C23.3171 25.9039 23.1712 26.1725 23.1712 26.3301C23.1712 28.6653 29.0195 30.3525 34.4883 30.3525C40.3132 30.3525 42.9163 28.4493 42.9163 26.7796C42.9163 26.1841 42.6829 25.8339 42.0875 25.1567C41.7023 24.7188 41.3346 24.3568 40.9494 24.0066C40.9261 23.9949 40.9144 24.0066 40.9261 24.0241ZM39.1401 22.693C37.3424 21.613 35.2529 21 33 21C30.7354 21 28.5817 21.6363 26.7782 22.7397C26.2354 23.0725 25.9319 23.341 25.9319 23.6855C25.9319 24.6955 28.2957 25.7872 32.4922 25.7872C36.642 25.7872 39.8638 24.5962 39.8638 23.4461C39.8638 23.1717 39.6245 22.9791 39.1401 22.693Z" fill="white"/>
</svg>
