<svg width="66" height="66" viewBox="0 0 66 66" fill="none" xmlns="http://www.w3.org/2000/svg">
<circle cx="33" cy="33" r="33" fill="#2CBF88"/>
<path d="M39.4785 32.6465L33 39.125L26.5215 32.6465H30.3965V27.5H35.6035V32.6465H39.4785ZM42.5059 28.832C42.0618 26.5716 40.9518 24.7148 39.1758 23.2617C37.3997 21.7682 35.3411 21.0215 33 21.0215C31.1836 21.0215 29.4883 21.5059 27.9141 22.4746C26.3802 23.403 25.2096 24.6543 24.4023 26.2285C22.4648 26.4707 20.8301 27.3184 19.498 28.7715C18.166 30.2246 17.5 31.9603 17.5 33.9785C17.5 35.3509 17.8431 36.6426 18.5293 37.8535C19.2155 39.0241 20.1439 39.9727 21.3145 40.6992C22.5254 41.3854 23.8372 41.7285 25.25 41.7285H42.0215C43.1921 41.7285 44.2617 41.446 45.2305 40.8809C46.2396 40.2754 47.0267 39.4883 47.5918 38.5195C48.1973 37.5104 48.5 36.4206 48.5 35.25C48.5 33.5547 47.9147 32.1016 46.7441 30.8906C45.6139 29.6393 44.2012 28.9531 42.5059 28.832Z" fill="white"/>
</svg>
