<svg width="66" height="66" viewBox="0 0 66 66" fill="none" xmlns="http://www.w3.org/2000/svg">
<circle cx="33" cy="33" r="33" fill="#2CBF88"/>
<path d="M45.6895 21.1855H22.3105C21.5358 21.1855 20.8522 21.4818 20.2598 22.0742C19.7129 22.6211 19.4395 23.3047 19.4395 24.125V41.625C19.4395 42.4453 19.7129 43.1517 20.2598 43.7441C20.8522 44.291 21.5358 44.5645 22.3105 44.5645H45.6895C46.4642 44.5645 47.125 44.291 47.6719 43.7441C48.2643 43.1517 48.5605 42.4453 48.5605 41.625V24.125C48.5605 23.3047 48.2643 22.6211 47.6719 22.0742C47.125 21.4818 46.4642 21.1855 45.6895 21.1855ZM38.375 29.9355H32.5645V31.4395H36.9395C37.304 31.4395 37.623 31.5762 37.8965 31.8496C38.2155 32.123 38.375 32.4648 38.375 32.875V37.25C38.375 37.6602 38.2155 38.002 37.8965 38.2754C37.623 38.5488 37.304 38.6855 36.9395 38.6855H35.4355V40.1895H32.5645V38.6855H29.625V35.8145H35.4355V34.3105H31.0605C30.696 34.3105 30.3542 34.1738 30.0352 33.9004C29.7617 33.627 29.625 33.2852 29.625 32.875V28.5C29.625 28.0898 29.7617 27.748 30.0352 27.4746C30.3542 27.2012 30.696 27.0645 31.0605 27.0645H32.5645V25.5605H35.4355V27.0645H38.375V29.9355Z" fill="white"/>
</svg>
