<svg width="20" height="20" viewBox="0 0 20 20" fill="none" xmlns="http://www.w3.org/2000/svg">
<circle cx="10" cy="10" r="9" stroke="black" stroke-width="2"/>
<path d="M12.625 9.75C13.026 9.75 13.3633 9.61328 13.6367 9.33984C13.9284 9.04818 14.0742 8.70182 14.0742 8.30078C14.0742 7.89974 13.9284 7.55339 13.6367 7.26172C13.3633 6.97005 13.026 6.82422 12.625 6.82422C12.224 6.82422 11.8776 6.97005 11.5859 7.26172C11.3125 7.55339 11.1758 7.89974 11.1758 8.30078C11.1758 8.70182 11.3125 9.04818 11.5859 9.33984C11.8776 9.61328 12.224 9.75 12.625 9.75ZM8.25 9.17578C8.74219 9.17578 9.15234 9.0026 9.48047 8.65625C9.82682 8.3099 10 7.89974 10 7.42578C10 6.93359 9.82682 6.52344 9.48047 6.19531C9.15234 5.84896 8.74219 5.67578 8.25 5.67578C7.75781 5.67578 7.33854 5.84896 6.99219 6.19531C6.66406 6.52344 6.5 6.93359 6.5 7.42578C6.5 7.89974 6.66406 8.3099 6.99219 8.65625C7.33854 9.0026 7.75781 9.17578 8.25 9.17578ZM12.625 10.9258C12.224 10.9258 11.7865 10.9805 11.3125 11.0898C10.7839 11.2357 10.3464 11.418 10 11.6367C9.61719 11.8919 9.42578 12.1836 9.42578 12.5117V13.8242H15.8242V12.5117C15.8242 12.1836 15.6328 11.8919 15.25 11.6367C14.9036 11.418 14.4661 11.2357 13.9375 11.0898C13.4635 10.9805 13.026 10.9258 12.625 10.9258ZM8.25 10.3242C7.73958 10.3242 7.18359 10.4062 6.58203 10.5703C5.90755 10.7344 5.35156 10.9622 4.91406 11.2539C4.42188 11.582 4.17578 11.9557 4.17578 12.375V13.8242H8.25V12.5117C8.25 12.1836 8.33203 11.8737 8.49609 11.582C8.73307 11.1445 9.11589 10.7799 9.64453 10.4883C9.11589 10.3789 8.65104 10.3242 8.25 10.3242Z" fill="black"/>
</svg>
