<svg width="66" height="66" viewBox="0 0 66 66" fill="none" xmlns="http://www.w3.org/2000/svg">
<circle cx="33" cy="33" r="33" fill="#2CBF88"/>
<path d="M33 25.75C30.6094 25.75 28.3294 26.1263 26.1602 26.8789C24.0352 27.5872 22.0651 28.6276 20.25 30L17.7266 26.6133C19.8516 24.9753 22.2201 23.7135 24.832 22.8281C27.444 21.9427 30.1667 21.5 33 21.5C35.8333 21.5 38.556 21.9427 41.168 22.8281C43.7799 23.7135 46.1484 24.9753 48.2734 26.6133L45.75 30C43.9349 28.6276 41.9427 27.5872 39.7734 26.8789C37.6484 26.1263 35.3906 25.75 33 25.75ZM34.3945 44.1445C34.3945 42.1966 34.9701 40.5143 36.1211 39.0977C34.793 38.6992 33.7526 38.5 33 38.5C31.2292 38.5 29.5247 39.0755 27.8867 40.2266L33 47L34.3945 45.0078V44.1445ZM39.7734 36.2422C40.0833 36.1536 40.6146 35.9987 41.3672 35.7773L43.2266 33.3867C41.7656 32.3242 40.1497 31.5052 38.3789 30.9297C36.6523 30.3099 34.8594 30 33 30C31.1406 30 29.3255 30.3099 27.5547 30.9297C25.8281 31.5052 24.2344 32.3242 22.7734 33.3867L25.3633 36.7734C26.4258 35.9766 27.6211 35.3568 28.9492 34.9141C30.2773 34.4714 31.6276 34.25 33 34.25C35.4792 34.25 37.737 34.9141 39.7734 36.2422ZM39.375 49.2578L40.3711 45.2734L37.25 42.6172L41.3672 42.3516L42.8945 38.5L44.4883 42.1523L48.6055 42.4844L45.4844 45.1406L46.4805 49.125L42.8945 47.1328L39.375 49.2578Z" fill="white"/>
</svg>
